<?xml version="1.0" encoding="utf-8" standalone="no"?>
<!DOCTYPE svg PUBLIC "-//W3C//DTD SVG 1.1//EN"
  "http://www.w3.org/Graphics/SVG/1.1/DTD/svg11.dtd">
<svg xmlns:xlink="http://www.w3.org/1999/xlink" width="857.215pt" height="684.369pt" viewBox="0 0 857.215 684.369" xmlns="http://www.w3.org/2000/svg" version="1.1">
 <metadata>
  <rdf:RDF xmlns:dc="http://purl.org/dc/elements/1.1/" xmlns:cc="http://creativecommons.org/ns#" xmlns:rdf="http://www.w3.org/1999/02/22-rdf-syntax-ns#">
   <cc:Work>
    <dc:type rdf:resource="http://purl.org/dc/dcmitype/StillImage"/>
    <dc:date>2026-06-17T13:46:41.322734</dc:date>
    <dc:format>image/svg+xml</dc:format>
    <dc:creator>
     <cc:Agent>
      <dc:title>Matplotlib v3.10.3, https://matplotlib.org/</dc:title>
     </cc:Agent>
    </dc:creator>
   </cc:Work>
  </rdf:RDF>
 </metadata>
 <defs>
  <style type="text/css">*{stroke-linejoin: round; stroke-linecap: butt}</style>
 </defs>
 <g id="figure_1">
  <g id="patch_1">
   <path d="M 0 684.369 
L 857.215 684.369 
L 857.215 0 
L 0 0 
L 0 684.369 
z
" style="fill: none; opacity: 0"/>
  </g>
  <g id="axes_1">
   <g id="patch_2">
    <path d="M 47.285 418.204 
L 850.015 418.204 
L 850.015 70.04 
L 47.285 70.04 
L 47.285 418.204 
z
" style="fill: none"/>
   </g>
   <g id="matplotlib.axis_1">
    <g id="xtick_1">
     <g id="line2d_1"/>
     <g id="text_1">
      <!-- GPT-Image-2 -->
      <g style="fill: #6d8ba8" transform="translate(88.434772 421.704) rotate(-270) scale(0.14 -0.14)">
       <defs>
        <path id="DejaVuSans-47" d="M 3809 666 
L 3809 1919 
L 2778 1919 
L 2778 2438 
L 4434 2438 
L 4434 434 
Q 4069 175 3628 42 
Q 3188 -91 2688 -91 
Q 1594 -91 976 548 
Q 359 1188 359 2328 
Q 359 3472 976 4111 
Q 1594 4750 2688 4750 
Q 3144 4750 3555 4637 
Q 3966 4525 4313 4306 
L 4313 3634 
Q 3963 3931 3569 4081 
Q 3175 4231 2741 4231 
Q 1884 4231 1454 3753 
Q 1025 3275 1025 2328 
Q 1025 1384 1454 906 
Q 1884 428 2741 428 
Q 3075 428 3337 486 
Q 3600 544 3809 666 
z
" transform="scale(0.015625)"/>
        <path id="DejaVuSans-50" d="M 1259 4147 
L 1259 2394 
L 2053 2394 
Q 2494 2394 2734 2622 
Q 2975 2850 2975 3272 
Q 2975 3691 2734 3919 
Q 2494 4147 2053 4147 
L 1259 4147 
z
M 628 4666 
L 2053 4666 
Q 2838 4666 3239 4311 
Q 3641 3956 3641 3272 
Q 3641 2581 3239 2228 
Q 2838 1875 2053 1875 
L 1259 1875 
L 1259 0 
L 628 0 
L 628 4666 
z
" transform="scale(0.015625)"/>
        <path id="DejaVuSans-54" d="M -19 4666 
L 3928 4666 
L 3928 4134 
L 2272 4134 
L 2272 0 
L 1638 0 
L 1638 4134 
L -19 4134 
L -19 4666 
z
" transform="scale(0.015625)"/>
        <path id="DejaVuSans-2d" d="M 313 2009 
L 1997 2009 
L 1997 1497 
L 313 1497 
L 313 2009 
z
" transform="scale(0.015625)"/>
        <path id="DejaVuSans-49" d="M 628 4666 
L 1259 4666 
L 1259 0 
L 628 0 
L 628 4666 
z
" transform="scale(0.015625)"/>
        <path id="DejaVuSans-6d" d="M 3328 2828 
Q 3544 3216 3844 3400 
Q 4144 3584 4550 3584 
Q 5097 3584 5394 3201 
Q 5691 2819 5691 2113 
L 5691 0 
L 5113 0 
L 5113 2094 
Q 5113 2597 4934 2840 
Q 4756 3084 4391 3084 
Q 3944 3084 3684 2787 
Q 3425 2491 3425 1978 
L 3425 0 
L 2847 0 
L 2847 2094 
Q 2847 2600 2669 2842 
Q 2491 3084 2119 3084 
Q 1678 3084 1418 2786 
Q 1159 2488 1159 1978 
L 1159 0 
L 581 0 
L 581 3500 
L 1159 3500 
L 1159 2956 
Q 1356 3278 1631 3431 
Q 1906 3584 2284 3584 
Q 2666 3584 2933 3390 
Q 3200 3197 3328 2828 
z
" transform="scale(0.015625)"/>
        <path id="DejaVuSans-61" d="M 2194 1759 
Q 1497 1759 1228 1600 
Q 959 1441 959 1056 
Q 959 750 1161 570 
Q 1363 391 1709 391 
Q 2188 391 2477 730 
Q 2766 1069 2766 1631 
L 2766 1759 
L 2194 1759 
z
M 3341 1997 
L 3341 0 
L 2766 0 
L 2766 531 
Q 2569 213 2275 61 
Q 1981 -91 1556 -91 
Q 1019 -91 701 211 
Q 384 513 384 1019 
Q 384 1609 779 1909 
Q 1175 2209 1959 2209 
L 2766 2209 
L 2766 2266 
Q 2766 2663 2505 2880 
Q 2244 3097 1772 3097 
Q 1472 3097 1187 3025 
Q 903 2953 641 2809 
L 641 3341 
Q 956 3463 1253 3523 
Q 1550 3584 1831 3584 
Q 2591 3584 2966 3190 
Q 3341 2797 3341 1997 
z
" transform="scale(0.015625)"/>
        <path id="DejaVuSans-67" d="M 2906 1791 
Q 2906 2416 2648 2759 
Q 2391 3103 1925 3103 
Q 1463 3103 1205 2759 
Q 947 2416 947 1791 
Q 947 1169 1205 825 
Q 1463 481 1925 481 
Q 2391 481 2648 825 
Q 2906 1169 2906 1791 
z
M 3481 434 
Q 3481 -459 3084 -895 
Q 2688 -1331 1869 -1331 
Q 1566 -1331 1297 -1286 
Q 1028 -1241 775 -1147 
L 775 -588 
Q 1028 -725 1275 -790 
Q 1522 -856 1778 -856 
Q 2344 -856 2625 -561 
Q 2906 -266 2906 331 
L 2906 616 
Q 2728 306 2450 153 
Q 2172 0 1784 0 
Q 1141 0 747 490 
Q 353 981 353 1791 
Q 353 2603 747 3093 
Q 1141 3584 1784 3584 
Q 2172 3584 2450 3431 
Q 2728 3278 2906 2969 
L 2906 3500 
L 3481 3500 
L 3481 434 
z
" transform="scale(0.015625)"/>
        <path id="DejaVuSans-65" d="M 3597 1894 
L 3597 1613 
L 953 1613 
Q 991 1019 1311 708 
Q 1631 397 2203 397 
Q 2534 397 2845 478 
Q 3156 559 3463 722 
L 3463 178 
Q 3153 47 2828 -22 
Q 2503 -91 2169 -91 
Q 1331 -91 842 396 
Q 353 884 353 1716 
Q 353 2575 817 3079 
Q 1281 3584 2069 3584 
Q 2775 3584 3186 3129 
Q 3597 2675 3597 1894 
z
M 3022 2063 
Q 3016 2534 2758 2815 
Q 2500 3097 2075 3097 
Q 1594 3097 1305 2825 
Q 1016 2553 972 2059 
L 3022 2063 
z
" transform="scale(0.015625)"/>
        <path id="DejaVuSans-32" d="M 1228 531 
L 3431 531 
L 3431 0 
L 469 0 
L 469 531 
Q 828 903 1448 1529 
Q 2069 2156 2228 2338 
Q 2531 2678 2651 2914 
Q 2772 3150 2772 3378 
Q 2772 3750 2511 3984 
Q 2250 4219 1831 4219 
Q 1534 4219 1204 4116 
Q 875 4013 500 3803 
L 500 4441 
Q 881 4594 1212 4672 
Q 1544 4750 1819 4750 
Q 2544 4750 2975 4387 
Q 3406 4025 3406 3419 
Q 3406 3131 3298 2873 
Q 3191 2616 2906 2266 
Q 2828 2175 2409 1742 
Q 1991 1309 1228 531 
z
" transform="scale(0.015625)"/>
       </defs>
       <use xlink:href="#DejaVuSans-47"/>
       <use xlink:href="#DejaVuSans-50" transform="translate(77.490234 0)"/>
       <use xlink:href="#DejaVuSans-54" transform="translate(137.792969 0)"/>
       <use xlink:href="#DejaVuSans-2d" transform="translate(189.751953 0)"/>
       <use xlink:href="#DejaVuSans-49" transform="translate(225.835938 0)"/>
       <use xlink:href="#DejaVuSans-6d" transform="translate(255.328125 0)"/>
       <use xlink:href="#DejaVuSans-61" transform="translate(352.740234 0)"/>
       <use xlink:href="#DejaVuSans-67" transform="translate(414.019531 0)"/>
       <use xlink:href="#DejaVuSans-65" transform="translate(477.496094 0)"/>
       <use xlink:href="#DejaVuSans-2d" transform="translate(539.019531 0)"/>
       <use xlink:href="#DejaVuSans-32" transform="translate(575.103516 0)"/>
      </g>
     </g>
    </g>
    <g id="xtick_2">
     <g id="line2d_2"/>
     <g id="text_2">
      <!-- Nano-Banana-Pro -->
      <g style="fill: #6d8ba8" transform="translate(163.456268 421.704) rotate(-270) scale(0.14 -0.14)">
       <defs>
        <path id="DejaVuSans-4e" d="M 628 4666 
L 1478 4666 
L 3547 763 
L 3547 4666 
L 4159 4666 
L 4159 0 
L 3309 0 
L 1241 3903 
L 1241 0 
L 628 0 
L 628 4666 
z
" transform="scale(0.015625)"/>
        <path id="DejaVuSans-6e" d="M 3513 2113 
L 3513 0 
L 2938 0 
L 2938 2094 
Q 2938 2591 2744 2837 
Q 2550 3084 2163 3084 
Q 1697 3084 1428 2787 
Q 1159 2491 1159 1978 
L 1159 0 
L 581 0 
L 581 3500 
L 1159 3500 
L 1159 2956 
Q 1366 3272 1645 3428 
Q 1925 3584 2291 3584 
Q 2894 3584 3203 3211 
Q 3513 2838 3513 2113 
z
" transform="scale(0.015625)"/>
        <path id="DejaVuSans-6f" d="M 1959 3097 
Q 1497 3097 1228 2736 
Q 959 2375 959 1747 
Q 959 1119 1226 758 
Q 1494 397 1959 397 
Q 2419 397 2687 759 
Q 2956 1122 2956 1747 
Q 2956 2369 2687 2733 
Q 2419 3097 1959 3097 
z
M 1959 3584 
Q 2709 3584 3137 3096 
Q 3566 2609 3566 1747 
Q 3566 888 3137 398 
Q 2709 -91 1959 -91 
Q 1206 -91 779 398 
Q 353 888 353 1747 
Q 353 2609 779 3096 
Q 1206 3584 1959 3584 
z
" transform="scale(0.015625)"/>
        <path id="DejaVuSans-42" d="M 1259 2228 
L 1259 519 
L 2272 519 
Q 2781 519 3026 730 
Q 3272 941 3272 1375 
Q 3272 1813 3026 2020 
Q 2781 2228 2272 2228 
L 1259 2228 
z
M 1259 4147 
L 1259 2741 
L 2194 2741 
Q 2656 2741 2882 2914 
Q 3109 3088 3109 3444 
Q 3109 3797 2882 3972 
Q 2656 4147 2194 4147 
L 1259 4147 
z
M 628 4666 
L 2241 4666 
Q 2963 4666 3353 4366 
Q 3744 4066 3744 3513 
Q 3744 3084 3544 2831 
Q 3344 2578 2956 2516 
Q 3422 2416 3680 2098 
Q 3938 1781 3938 1306 
Q 3938 681 3513 340 
Q 3088 0 2303 0 
L 628 0 
L 628 4666 
z
" transform="scale(0.015625)"/>
        <path id="DejaVuSans-72" d="M 2631 2963 
Q 2534 3019 2420 3045 
Q 2306 3072 2169 3072 
Q 1681 3072 1420 2755 
Q 1159 2438 1159 1844 
L 1159 0 
L 581 0 
L 581 3500 
L 1159 3500 
L 1159 2956 
Q 1341 3275 1631 3429 
Q 1922 3584 2338 3584 
Q 2397 3584 2469 3576 
Q 2541 3569 2628 3553 
L 2631 2963 
z
" transform="scale(0.015625)"/>
       </defs>
       <use xlink:href="#DejaVuSans-4e"/>
       <use xlink:href="#DejaVuSans-61" transform="translate(74.804688 0)"/>
       <use xlink:href="#DejaVuSans-6e" transform="translate(136.083984 0)"/>
       <use xlink:href="#DejaVuSans-6f" transform="translate(199.462891 0)"/>
       <use xlink:href="#DejaVuSans-2d" transform="translate(262.519531 0)"/>
       <use xlink:href="#DejaVuSans-42" transform="translate(294.978516 0)"/>
       <use xlink:href="#DejaVuSans-61" transform="translate(363.582031 0)"/>
       <use xlink:href="#DejaVuSans-6e" transform="translate(424.861328 0)"/>
       <use xlink:href="#DejaVuSans-61" transform="translate(488.240234 0)"/>
       <use xlink:href="#DejaVuSans-6e" transform="translate(549.519531 0)"/>
       <use xlink:href="#DejaVuSans-61" transform="translate(612.898438 0)"/>
       <use xlink:href="#DejaVuSans-2d" transform="translate(674.177734 0)"/>
       <use xlink:href="#DejaVuSans-50" transform="translate(710.261719 0)"/>
       <use xlink:href="#DejaVuSans-72" transform="translate(768.814453 0)"/>
       <use xlink:href="#DejaVuSans-6f" transform="translate(807.677734 0)"/>
      </g>
     </g>
    </g>
    <g id="xtick_3">
     <g id="line2d_3"/>
     <g id="text_3">
      <!-- Boogu-Image-0.1-Turbo-Thinking -->
      <g style="fill: #d97745" transform="translate(238.53245 421.704) rotate(-270) scale(0.14 -0.14)">
       <defs>
        <path id="DejaVuSans-Bold-42" d="M 2456 2859 
Q 2741 2859 2887 2984 
Q 3034 3109 3034 3353 
Q 3034 3594 2887 3720 
Q 2741 3847 2456 3847 
L 1791 3847 
L 1791 2859 
L 2456 2859 
z
M 2497 819 
Q 2859 819 3042 972 
Q 3225 1125 3225 1434 
Q 3225 1738 3044 1889 
Q 2863 2041 2497 2041 
L 1791 2041 
L 1791 819 
L 2497 819 
z
M 3616 2497 
Q 4003 2384 4215 2081 
Q 4428 1778 4428 1338 
Q 4428 663 3972 331 
Q 3516 0 2584 0 
L 588 0 
L 588 4666 
L 2394 4666 
Q 3366 4666 3802 4372 
Q 4238 4078 4238 3431 
Q 4238 3091 4078 2852 
Q 3919 2613 3616 2497 
z
" transform="scale(0.015625)"/>
        <path id="DejaVuSans-Bold-6f" d="M 2203 2784 
Q 1831 2784 1636 2517 
Q 1441 2250 1441 1747 
Q 1441 1244 1636 976 
Q 1831 709 2203 709 
Q 2569 709 2762 976 
Q 2956 1244 2956 1747 
Q 2956 2250 2762 2517 
Q 2569 2784 2203 2784 
z
M 2203 3584 
Q 3106 3584 3614 3096 
Q 4122 2609 4122 1747 
Q 4122 884 3614 396 
Q 3106 -91 2203 -91 
Q 1297 -91 786 396 
Q 275 884 275 1747 
Q 275 2609 786 3096 
Q 1297 3584 2203 3584 
z
" transform="scale(0.015625)"/>
        <path id="DejaVuSans-Bold-67" d="M 2919 594 
Q 2688 288 2409 144 
Q 2131 0 1766 0 
Q 1125 0 706 504 
Q 288 1009 288 1791 
Q 288 2575 706 3076 
Q 1125 3578 1766 3578 
Q 2131 3578 2409 3434 
Q 2688 3291 2919 2981 
L 2919 3500 
L 4044 3500 
L 4044 353 
Q 4044 -491 3511 -936 
Q 2978 -1381 1966 -1381 
Q 1638 -1381 1331 -1331 
Q 1025 -1281 716 -1178 
L 716 -306 
Q 1009 -475 1290 -558 
Q 1572 -641 1856 -641 
Q 2406 -641 2662 -400 
Q 2919 -159 2919 353 
L 2919 594 
z
M 2181 2772 
Q 1834 2772 1640 2515 
Q 1447 2259 1447 1791 
Q 1447 1309 1634 1061 
Q 1822 813 2181 813 
Q 2531 813 2725 1069 
Q 2919 1325 2919 1791 
Q 2919 2259 2725 2515 
Q 2531 2772 2181 2772 
z
" transform="scale(0.015625)"/>
        <path id="DejaVuSans-Bold-75" d="M 500 1363 
L 500 3500 
L 1625 3500 
L 1625 3150 
Q 1625 2866 1622 2436 
Q 1619 2006 1619 1863 
Q 1619 1441 1641 1255 
Q 1663 1069 1716 984 
Q 1784 875 1895 815 
Q 2006 756 2150 756 
Q 2500 756 2700 1025 
Q 2900 1294 2900 1772 
L 2900 3500 
L 4019 3500 
L 4019 0 
L 2900 0 
L 2900 506 
Q 2647 200 2364 54 
Q 2081 -91 1741 -91 
Q 1134 -91 817 281 
Q 500 653 500 1363 
z
" transform="scale(0.015625)"/>
        <path id="DejaVuSans-Bold-2d" d="M 347 2297 
L 2309 2297 
L 2309 1388 
L 347 1388 
L 347 2297 
z
" transform="scale(0.015625)"/>
        <path id="DejaVuSans-Bold-49" d="M 588 4666 
L 1791 4666 
L 1791 0 
L 588 0 
L 588 4666 
z
" transform="scale(0.015625)"/>
        <path id="DejaVuSans-Bold-6d" d="M 3781 2919 
Q 3994 3244 4286 3414 
Q 4578 3584 4928 3584 
Q 5531 3584 5847 3212 
Q 6163 2841 6163 2131 
L 6163 0 
L 5038 0 
L 5038 1825 
Q 5041 1866 5042 1909 
Q 5044 1953 5044 2034 
Q 5044 2406 4934 2573 
Q 4825 2741 4581 2741 
Q 4263 2741 4089 2478 
Q 3916 2216 3909 1719 
L 3909 0 
L 2784 0 
L 2784 1825 
Q 2784 2406 2684 2573 
Q 2584 2741 2328 2741 
Q 2006 2741 1831 2477 
Q 1656 2213 1656 1722 
L 1656 0 
L 531 0 
L 531 3500 
L 1656 3500 
L 1656 2988 
Q 1863 3284 2130 3434 
Q 2397 3584 2719 3584 
Q 3081 3584 3359 3409 
Q 3638 3234 3781 2919 
z
" transform="scale(0.015625)"/>
        <path id="DejaVuSans-Bold-61" d="M 2106 1575 
Q 1756 1575 1579 1456 
Q 1403 1338 1403 1106 
Q 1403 894 1545 773 
Q 1688 653 1941 653 
Q 2256 653 2472 879 
Q 2688 1106 2688 1447 
L 2688 1575 
L 2106 1575 
z
M 3816 1997 
L 3816 0 
L 2688 0 
L 2688 519 
Q 2463 200 2181 54 
Q 1900 -91 1497 -91 
Q 953 -91 614 226 
Q 275 544 275 1050 
Q 275 1666 698 1953 
Q 1122 2241 2028 2241 
L 2688 2241 
L 2688 2328 
Q 2688 2594 2478 2717 
Q 2269 2841 1825 2841 
Q 1466 2841 1156 2769 
Q 847 2697 581 2553 
L 581 3406 
Q 941 3494 1303 3539 
Q 1666 3584 2028 3584 
Q 2975 3584 3395 3211 
Q 3816 2838 3816 1997 
z
" transform="scale(0.015625)"/>
        <path id="DejaVuSans-Bold-65" d="M 4031 1759 
L 4031 1441 
L 1416 1441 
Q 1456 1047 1700 850 
Q 1944 653 2381 653 
Q 2734 653 3104 758 
Q 3475 863 3866 1075 
L 3866 213 
Q 3469 63 3072 -14 
Q 2675 -91 2278 -91 
Q 1328 -91 801 392 
Q 275 875 275 1747 
Q 275 2603 792 3093 
Q 1309 3584 2216 3584 
Q 3041 3584 3536 3087 
Q 4031 2591 4031 1759 
z
M 2881 2131 
Q 2881 2450 2695 2645 
Q 2509 2841 2209 2841 
Q 1884 2841 1681 2658 
Q 1478 2475 1428 2131 
L 2881 2131 
z
" transform="scale(0.015625)"/>
        <path id="DejaVuSans-Bold-30" d="M 2944 2338 
Q 2944 3213 2780 3570 
Q 2616 3928 2228 3928 
Q 1841 3928 1675 3570 
Q 1509 3213 1509 2338 
Q 1509 1453 1675 1090 
Q 1841 728 2228 728 
Q 2613 728 2778 1090 
Q 2944 1453 2944 2338 
z
M 4147 2328 
Q 4147 1169 3647 539 
Q 3147 -91 2228 -91 
Q 1306 -91 806 539 
Q 306 1169 306 2328 
Q 306 3491 806 4120 
Q 1306 4750 2228 4750 
Q 3147 4750 3647 4120 
Q 4147 3491 4147 2328 
z
" transform="scale(0.015625)"/>
        <path id="DejaVuSans-Bold-2e" d="M 653 1209 
L 1778 1209 
L 1778 0 
L 653 0 
L 653 1209 
z
" transform="scale(0.015625)"/>
        <path id="DejaVuSans-Bold-31" d="M 750 831 
L 1813 831 
L 1813 3847 
L 722 3622 
L 722 4441 
L 1806 4666 
L 2950 4666 
L 2950 831 
L 4013 831 
L 4013 0 
L 750 0 
L 750 831 
z
" transform="scale(0.015625)"/>
        <path id="DejaVuSans-Bold-54" d="M 31 4666 
L 4331 4666 
L 4331 3756 
L 2784 3756 
L 2784 0 
L 1581 0 
L 1581 3756 
L 31 3756 
L 31 4666 
z
" transform="scale(0.015625)"/>
        <path id="DejaVuSans-Bold-72" d="M 3138 2547 
Q 2991 2616 2845 2648 
Q 2700 2681 2553 2681 
Q 2122 2681 1889 2404 
Q 1656 2128 1656 1613 
L 1656 0 
L 538 0 
L 538 3500 
L 1656 3500 
L 1656 2925 
Q 1872 3269 2151 3426 
Q 2431 3584 2822 3584 
Q 2878 3584 2943 3579 
Q 3009 3575 3134 3559 
L 3138 2547 
z
" transform="scale(0.015625)"/>
        <path id="DejaVuSans-Bold-62" d="M 2400 722 
Q 2759 722 2948 984 
Q 3138 1247 3138 1747 
Q 3138 2247 2948 2509 
Q 2759 2772 2400 2772 
Q 2041 2772 1848 2508 
Q 1656 2244 1656 1747 
Q 1656 1250 1848 986 
Q 2041 722 2400 722 
z
M 1656 2988 
Q 1888 3294 2169 3439 
Q 2450 3584 2816 3584 
Q 3463 3584 3878 3070 
Q 4294 2556 4294 1747 
Q 4294 938 3878 423 
Q 3463 -91 2816 -91 
Q 2450 -91 2169 54 
Q 1888 200 1656 506 
L 1656 0 
L 538 0 
L 538 4863 
L 1656 4863 
L 1656 2988 
z
" transform="scale(0.015625)"/>
        <path id="DejaVuSans-Bold-68" d="M 4056 2131 
L 4056 0 
L 2931 0 
L 2931 347 
L 2931 1625 
Q 2931 2084 2911 2256 
Q 2891 2428 2841 2509 
Q 2775 2619 2662 2680 
Q 2550 2741 2406 2741 
Q 2056 2741 1856 2470 
Q 1656 2200 1656 1722 
L 1656 0 
L 538 0 
L 538 4863 
L 1656 4863 
L 1656 2988 
Q 1909 3294 2193 3439 
Q 2478 3584 2822 3584 
Q 3428 3584 3742 3212 
Q 4056 2841 4056 2131 
z
" transform="scale(0.015625)"/>
        <path id="DejaVuSans-Bold-69" d="M 538 3500 
L 1656 3500 
L 1656 0 
L 538 0 
L 538 3500 
z
M 538 4863 
L 1656 4863 
L 1656 3950 
L 538 3950 
L 538 4863 
z
" transform="scale(0.015625)"/>
        <path id="DejaVuSans-Bold-6e" d="M 4056 2131 
L 4056 0 
L 2931 0 
L 2931 347 
L 2931 1631 
Q 2931 2084 2911 2256 
Q 2891 2428 2841 2509 
Q 2775 2619 2662 2680 
Q 2550 2741 2406 2741 
Q 2056 2741 1856 2470 
Q 1656 2200 1656 1722 
L 1656 0 
L 538 0 
L 538 3500 
L 1656 3500 
L 1656 2988 
Q 1909 3294 2193 3439 
Q 2478 3584 2822 3584 
Q 3428 3584 3742 3212 
Q 4056 2841 4056 2131 
z
" transform="scale(0.015625)"/>
        <path id="DejaVuSans-Bold-6b" d="M 538 4863 
L 1656 4863 
L 1656 2216 
L 2944 3500 
L 4244 3500 
L 2534 1894 
L 4378 0 
L 3022 0 
L 1656 1459 
L 1656 0 
L 538 0 
L 538 4863 
z
" transform="scale(0.015625)"/>
       </defs>
       <use xlink:href="#DejaVuSans-Bold-42"/>
       <use xlink:href="#DejaVuSans-Bold-6f" transform="translate(76.220703 0)"/>
       <use xlink:href="#DejaVuSans-Bold-6f" transform="translate(144.921875 0)"/>
       <use xlink:href="#DejaVuSans-Bold-67" transform="translate(213.623047 0)"/>
       <use xlink:href="#DejaVuSans-Bold-75" transform="translate(285.205078 0)"/>
       <use xlink:href="#DejaVuSans-Bold-2d" transform="translate(356.396484 0)"/>
       <use xlink:href="#DejaVuSans-Bold-49" transform="translate(397.900391 0)"/>
       <use xlink:href="#DejaVuSans-Bold-6d" transform="translate(435.107422 0)"/>
       <use xlink:href="#DejaVuSans-Bold-61" transform="translate(539.306641 0)"/>
       <use xlink:href="#DejaVuSans-Bold-67" transform="translate(606.787109 0)"/>
       <use xlink:href="#DejaVuSans-Bold-65" transform="translate(678.369141 0)"/>
       <use xlink:href="#DejaVuSans-Bold-2d" transform="translate(746.191406 0)"/>
       <use xlink:href="#DejaVuSans-Bold-30" transform="translate(787.695312 0)"/>
       <use xlink:href="#DejaVuSans-Bold-2e" transform="translate(857.275391 0)"/>
       <use xlink:href="#DejaVuSans-Bold-31" transform="translate(895.263672 0)"/>
       <use xlink:href="#DejaVuSans-Bold-2d" transform="translate(964.84375 0)"/>
       <use xlink:href="#DejaVuSans-Bold-54" transform="translate(991.597656 0)"/>
       <use xlink:href="#DejaVuSans-Bold-75" transform="translate(1048.810547 0)"/>
       <use xlink:href="#DejaVuSans-Bold-72" transform="translate(1120.001953 0)"/>
       <use xlink:href="#DejaVuSans-Bold-62" transform="translate(1169.318359 0)"/>
       <use xlink:href="#DejaVuSans-Bold-6f" transform="translate(1240.900391 0)"/>
       <use xlink:href="#DejaVuSans-Bold-2d" transform="translate(1309.601562 0)"/>
       <use xlink:href="#DejaVuSans-Bold-54" transform="translate(1336.355469 0)"/>
       <use xlink:href="#DejaVuSans-Bold-68" transform="translate(1404.568359 0)"/>
       <use xlink:href="#DejaVuSans-Bold-69" transform="translate(1475.759766 0)"/>
       <use xlink:href="#DejaVuSans-Bold-6e" transform="translate(1510.037109 0)"/>
       <use xlink:href="#DejaVuSans-Bold-6b" transform="translate(1581.228516 0)"/>
       <use xlink:href="#DejaVuSans-Bold-69" transform="translate(1647.732422 0)"/>
       <use xlink:href="#DejaVuSans-Bold-6e" transform="translate(1682.009766 0)"/>
       <use xlink:href="#DejaVuSans-Bold-67" transform="translate(1753.201172 0)"/>
      </g>
     </g>
    </g>
    <g id="xtick_4">
     <g id="line2d_4"/>
     <g id="text_4">
      <!-- Seedream-5.0-Lite -->
      <g style="fill: #6d8ba8" transform="translate(313.499258 421.704) rotate(-270) scale(0.14 -0.14)">
       <defs>
        <path id="DejaVuSans-53" d="M 3425 4513 
L 3425 3897 
Q 3066 4069 2747 4153 
Q 2428 4238 2131 4238 
Q 1616 4238 1336 4038 
Q 1056 3838 1056 3469 
Q 1056 3159 1242 3001 
Q 1428 2844 1947 2747 
L 2328 2669 
Q 3034 2534 3370 2195 
Q 3706 1856 3706 1288 
Q 3706 609 3251 259 
Q 2797 -91 1919 -91 
Q 1588 -91 1214 -16 
Q 841 59 441 206 
L 441 856 
Q 825 641 1194 531 
Q 1563 422 1919 422 
Q 2459 422 2753 634 
Q 3047 847 3047 1241 
Q 3047 1584 2836 1778 
Q 2625 1972 2144 2069 
L 1759 2144 
Q 1053 2284 737 2584 
Q 422 2884 422 3419 
Q 422 4038 858 4394 
Q 1294 4750 2059 4750 
Q 2388 4750 2728 4690 
Q 3069 4631 3425 4513 
z
" transform="scale(0.015625)"/>
        <path id="DejaVuSans-64" d="M 2906 2969 
L 2906 4863 
L 3481 4863 
L 3481 0 
L 2906 0 
L 2906 525 
Q 2725 213 2448 61 
Q 2172 -91 1784 -91 
Q 1150 -91 751 415 
Q 353 922 353 1747 
Q 353 2572 751 3078 
Q 1150 3584 1784 3584 
Q 2172 3584 2448 3432 
Q 2725 3281 2906 2969 
z
M 947 1747 
Q 947 1113 1208 752 
Q 1469 391 1925 391 
Q 2381 391 2643 752 
Q 2906 1113 2906 1747 
Q 2906 2381 2643 2742 
Q 2381 3103 1925 3103 
Q 1469 3103 1208 2742 
Q 947 2381 947 1747 
z
" transform="scale(0.015625)"/>
        <path id="DejaVuSans-35" d="M 691 4666 
L 3169 4666 
L 3169 4134 
L 1269 4134 
L 1269 2991 
Q 1406 3038 1543 3061 
Q 1681 3084 1819 3084 
Q 2600 3084 3056 2656 
Q 3513 2228 3513 1497 
Q 3513 744 3044 326 
Q 2575 -91 1722 -91 
Q 1428 -91 1123 -41 
Q 819 9 494 109 
L 494 744 
Q 775 591 1075 516 
Q 1375 441 1709 441 
Q 2250 441 2565 725 
Q 2881 1009 2881 1497 
Q 2881 1984 2565 2268 
Q 2250 2553 1709 2553 
Q 1456 2553 1204 2497 
Q 953 2441 691 2322 
L 691 4666 
z
" transform="scale(0.015625)"/>
        <path id="DejaVuSans-2e" d="M 684 794 
L 1344 794 
L 1344 0 
L 684 0 
L 684 794 
z
" transform="scale(0.015625)"/>
        <path id="DejaVuSans-30" d="M 2034 4250 
Q 1547 4250 1301 3770 
Q 1056 3291 1056 2328 
Q 1056 1369 1301 889 
Q 1547 409 2034 409 
Q 2525 409 2770 889 
Q 3016 1369 3016 2328 
Q 3016 3291 2770 3770 
Q 2525 4250 2034 4250 
z
M 2034 4750 
Q 2819 4750 3233 4129 
Q 3647 3509 3647 2328 
Q 3647 1150 3233 529 
Q 2819 -91 2034 -91 
Q 1250 -91 836 529 
Q 422 1150 422 2328 
Q 422 3509 836 4129 
Q 1250 4750 2034 4750 
z
" transform="scale(0.015625)"/>
        <path id="DejaVuSans-4c" d="M 628 4666 
L 1259 4666 
L 1259 531 
L 3531 531 
L 3531 0 
L 628 0 
L 628 4666 
z
" transform="scale(0.015625)"/>
        <path id="DejaVuSans-69" d="M 603 3500 
L 1178 3500 
L 1178 0 
L 603 0 
L 603 3500 
z
M 603 4863 
L 1178 4863 
L 1178 4134 
L 603 4134 
L 603 4863 
z
" transform="scale(0.015625)"/>
        <path id="DejaVuSans-74" d="M 1172 4494 
L 1172 3500 
L 2356 3500 
L 2356 3053 
L 1172 3053 
L 1172 1153 
Q 1172 725 1289 603 
Q 1406 481 1766 481 
L 2356 481 
L 2356 0 
L 1766 0 
Q 1100 0 847 248 
Q 594 497 594 1153 
L 594 3053 
L 172 3053 
L 172 3500 
L 594 3500 
L 594 4494 
L 1172 4494 
z
" transform="scale(0.015625)"/>
       </defs>
       <use xlink:href="#DejaVuSans-53"/>
       <use xlink:href="#DejaVuSans-65" transform="translate(63.476562 0)"/>
       <use xlink:href="#DejaVuSans-65" transform="translate(125 0)"/>
       <use xlink:href="#DejaVuSans-64" transform="translate(186.523438 0)"/>
       <use xlink:href="#DejaVuSans-72" transform="translate(250 0)"/>
       <use xlink:href="#DejaVuSans-65" transform="translate(288.863281 0)"/>
       <use xlink:href="#DejaVuSans-61" transform="translate(350.386719 0)"/>
       <use xlink:href="#DejaVuSans-6d" transform="translate(411.666016 0)"/>
       <use xlink:href="#DejaVuSans-2d" transform="translate(509.078125 0)"/>
       <use xlink:href="#DejaVuSans-35" transform="translate(545.162109 0)"/>
       <use xlink:href="#DejaVuSans-2e" transform="translate(608.785156 0)"/>
       <use xlink:href="#DejaVuSans-30" transform="translate(640.572266 0)"/>
       <use xlink:href="#DejaVuSans-2d" transform="translate(704.195312 0)"/>
       <use xlink:href="#DejaVuSans-4c" transform="translate(740.279297 0)"/>
       <use xlink:href="#DejaVuSans-69" transform="translate(795.992188 0)"/>
       <use xlink:href="#DejaVuSans-74" transform="translate(823.775391 0)"/>
       <use xlink:href="#DejaVuSans-65" transform="translate(862.984375 0)"/>
      </g>
     </g>
    </g>
    <g id="xtick_5">
     <g id="line2d_5"/>
     <g id="text_5">
      <!-- Boogu-Image-0.1-Turbo -->
      <g style="fill: #d97745" transform="translate(388.575441 421.704) rotate(-270) scale(0.14 -0.14)">
       <use xlink:href="#DejaVuSans-Bold-42"/>
       <use xlink:href="#DejaVuSans-Bold-6f" transform="translate(76.220703 0)"/>
       <use xlink:href="#DejaVuSans-Bold-6f" transform="translate(144.921875 0)"/>
       <use xlink:href="#DejaVuSans-Bold-67" transform="translate(213.623047 0)"/>
       <use xlink:href="#DejaVuSans-Bold-75" transform="translate(285.205078 0)"/>
       <use xlink:href="#DejaVuSans-Bold-2d" transform="translate(356.396484 0)"/>
       <use xlink:href="#DejaVuSans-Bold-49" transform="translate(397.900391 0)"/>
       <use xlink:href="#DejaVuSans-Bold-6d" transform="translate(435.107422 0)"/>
       <use xlink:href="#DejaVuSans-Bold-61" transform="translate(539.306641 0)"/>
       <use xlink:href="#DejaVuSans-Bold-67" transform="translate(606.787109 0)"/>
       <use xlink:href="#DejaVuSans-Bold-65" transform="translate(678.369141 0)"/>
       <use xlink:href="#DejaVuSans-Bold-2d" transform="translate(746.191406 0)"/>
       <use xlink:href="#DejaVuSans-Bold-30" transform="translate(787.695312 0)"/>
       <use xlink:href="#DejaVuSans-Bold-2e" transform="translate(857.275391 0)"/>
       <use xlink:href="#DejaVuSans-Bold-31" transform="translate(895.263672 0)"/>
       <use xlink:href="#DejaVuSans-Bold-2d" transform="translate(964.84375 0)"/>
       <use xlink:href="#DejaVuSans-Bold-54" transform="translate(991.597656 0)"/>
       <use xlink:href="#DejaVuSans-Bold-75" transform="translate(1048.810547 0)"/>
       <use xlink:href="#DejaVuSans-Bold-72" transform="translate(1120.001953 0)"/>
       <use xlink:href="#DejaVuSans-Bold-62" transform="translate(1169.318359 0)"/>
       <use xlink:href="#DejaVuSans-Bold-6f" transform="translate(1240.900391 0)"/>
      </g>
     </g>
    </g>
    <g id="xtick_6">
     <g id="line2d_6"/>
     <g id="text_6">
      <!-- Qwen-Image-Max-2025-12-30 -->
      <g style="fill: #6d8ba8" transform="translate(463.542249 421.704) rotate(-270) scale(0.14 -0.14)">
       <defs>
        <path id="DejaVuSans-51" d="M 2522 4238 
Q 1834 4238 1429 3725 
Q 1025 3213 1025 2328 
Q 1025 1447 1429 934 
Q 1834 422 2522 422 
Q 3209 422 3611 934 
Q 4013 1447 4013 2328 
Q 4013 3213 3611 3725 
Q 3209 4238 2522 4238 
z
M 3406 84 
L 4238 -825 
L 3475 -825 
L 2784 -78 
Q 2681 -84 2626 -87 
Q 2572 -91 2522 -91 
Q 1538 -91 948 567 
Q 359 1225 359 2328 
Q 359 3434 948 4092 
Q 1538 4750 2522 4750 
Q 3503 4750 4090 4092 
Q 4678 3434 4678 2328 
Q 4678 1516 4351 937 
Q 4025 359 3406 84 
z
" transform="scale(0.015625)"/>
        <path id="DejaVuSans-77" d="M 269 3500 
L 844 3500 
L 1563 769 
L 2278 3500 
L 2956 3500 
L 3675 769 
L 4391 3500 
L 4966 3500 
L 4050 0 
L 3372 0 
L 2619 2869 
L 1863 0 
L 1184 0 
L 269 3500 
z
" transform="scale(0.015625)"/>
        <path id="DejaVuSans-4d" d="M 628 4666 
L 1569 4666 
L 2759 1491 
L 3956 4666 
L 4897 4666 
L 4897 0 
L 4281 0 
L 4281 4097 
L 3078 897 
L 2444 897 
L 1241 4097 
L 1241 0 
L 628 0 
L 628 4666 
z
" transform="scale(0.015625)"/>
        <path id="DejaVuSans-78" d="M 3513 3500 
L 2247 1797 
L 3578 0 
L 2900 0 
L 1881 1375 
L 863 0 
L 184 0 
L 1544 1831 
L 300 3500 
L 978 3500 
L 1906 2253 
L 2834 3500 
L 3513 3500 
z
" transform="scale(0.015625)"/>
        <path id="DejaVuSans-31" d="M 794 531 
L 1825 531 
L 1825 4091 
L 703 3866 
L 703 4441 
L 1819 4666 
L 2450 4666 
L 2450 531 
L 3481 531 
L 3481 0 
L 794 0 
L 794 531 
z
" transform="scale(0.015625)"/>
        <path id="DejaVuSans-33" d="M 2597 2516 
Q 3050 2419 3304 2112 
Q 3559 1806 3559 1356 
Q 3559 666 3084 287 
Q 2609 -91 1734 -91 
Q 1441 -91 1130 -33 
Q 819 25 488 141 
L 488 750 
Q 750 597 1062 519 
Q 1375 441 1716 441 
Q 2309 441 2620 675 
Q 2931 909 2931 1356 
Q 2931 1769 2642 2001 
Q 2353 2234 1838 2234 
L 1294 2234 
L 1294 2753 
L 1863 2753 
Q 2328 2753 2575 2939 
Q 2822 3125 2822 3475 
Q 2822 3834 2567 4026 
Q 2313 4219 1838 4219 
Q 1578 4219 1281 4162 
Q 984 4106 628 3988 
L 628 4550 
Q 988 4650 1302 4700 
Q 1616 4750 1894 4750 
Q 2613 4750 3031 4423 
Q 3450 4097 3450 3541 
Q 3450 3153 3228 2886 
Q 3006 2619 2597 2516 
z
" transform="scale(0.015625)"/>
       </defs>
       <use xlink:href="#DejaVuSans-51"/>
       <use xlink:href="#DejaVuSans-77" transform="translate(78.710938 0)"/>
       <use xlink:href="#DejaVuSans-65" transform="translate(160.498047 0)"/>
       <use xlink:href="#DejaVuSans-6e" transform="translate(222.021484 0)"/>
       <use xlink:href="#DejaVuSans-2d" transform="translate(285.400391 0)"/>
       <use xlink:href="#DejaVuSans-49" transform="translate(321.484375 0)"/>
       <use xlink:href="#DejaVuSans-6d" transform="translate(350.976562 0)"/>
       <use xlink:href="#DejaVuSans-61" transform="translate(448.388672 0)"/>
       <use xlink:href="#DejaVuSans-67" transform="translate(509.667969 0)"/>
       <use xlink:href="#DejaVuSans-65" transform="translate(573.144531 0)"/>
       <use xlink:href="#DejaVuSans-2d" transform="translate(634.667969 0)"/>
       <use xlink:href="#DejaVuSans-4d" transform="translate(670.751953 0)"/>
       <use xlink:href="#DejaVuSans-61" transform="translate(757.03125 0)"/>
       <use xlink:href="#DejaVuSans-78" transform="translate(818.310547 0)"/>
       <use xlink:href="#DejaVuSans-2d" transform="translate(877.490234 0)"/>
       <use xlink:href="#DejaVuSans-32" transform="translate(913.574219 0)"/>
       <use xlink:href="#DejaVuSans-30" transform="translate(977.197266 0)"/>
       <use xlink:href="#DejaVuSans-32" transform="translate(1040.820312 0)"/>
       <use xlink:href="#DejaVuSans-35" transform="translate(1104.443359 0)"/>
       <use xlink:href="#DejaVuSans-2d" transform="translate(1168.066406 0)"/>
       <use xlink:href="#DejaVuSans-31" transform="translate(1204.150391 0)"/>
       <use xlink:href="#DejaVuSans-32" transform="translate(1267.773438 0)"/>
       <use xlink:href="#DejaVuSans-2d" transform="translate(1331.396484 0)"/>
       <use xlink:href="#DejaVuSans-33" transform="translate(1367.480469 0)"/>
       <use xlink:href="#DejaVuSans-30" transform="translate(1431.103516 0)"/>
      </g>
     </g>
    </g>
    <g id="xtick_7">
     <g id="line2d_7"/>
     <g id="text_7">
      <!-- Z-Image-Turbo -->
      <g style="fill: #4fad73" transform="translate(538.563744 421.704) rotate(-270) scale(0.14 -0.14)">
       <defs>
        <path id="DejaVuSans-5a" d="M 359 4666 
L 4025 4666 
L 4025 4184 
L 1075 531 
L 4097 531 
L 4097 0 
L 288 0 
L 288 481 
L 3238 4134 
L 359 4134 
L 359 4666 
z
" transform="scale(0.015625)"/>
        <path id="DejaVuSans-75" d="M 544 1381 
L 544 3500 
L 1119 3500 
L 1119 1403 
Q 1119 906 1312 657 
Q 1506 409 1894 409 
Q 2359 409 2629 706 
Q 2900 1003 2900 1516 
L 2900 3500 
L 3475 3500 
L 3475 0 
L 2900 0 
L 2900 538 
Q 2691 219 2414 64 
Q 2138 -91 1772 -91 
Q 1169 -91 856 284 
Q 544 659 544 1381 
z
M 1991 3584 
L 1991 3584 
z
" transform="scale(0.015625)"/>
        <path id="DejaVuSans-62" d="M 3116 1747 
Q 3116 2381 2855 2742 
Q 2594 3103 2138 3103 
Q 1681 3103 1420 2742 
Q 1159 2381 1159 1747 
Q 1159 1113 1420 752 
Q 1681 391 2138 391 
Q 2594 391 2855 752 
Q 3116 1113 3116 1747 
z
M 1159 2969 
Q 1341 3281 1617 3432 
Q 1894 3584 2278 3584 
Q 2916 3584 3314 3078 
Q 3713 2572 3713 1747 
Q 3713 922 3314 415 
Q 2916 -91 2278 -91 
Q 1894 -91 1617 61 
Q 1341 213 1159 525 
L 1159 0 
L 581 0 
L 581 4863 
L 1159 4863 
L 1159 2969 
z
" transform="scale(0.015625)"/>
       </defs>
       <use xlink:href="#DejaVuSans-5a"/>
       <use xlink:href="#DejaVuSans-2d" transform="translate(66.755859 0)"/>
       <use xlink:href="#DejaVuSans-49" transform="translate(102.839844 0)"/>
       <use xlink:href="#DejaVuSans-6d" transform="translate(132.332031 0)"/>
       <use xlink:href="#DejaVuSans-61" transform="translate(229.744141 0)"/>
       <use xlink:href="#DejaVuSans-67" transform="translate(291.023438 0)"/>
       <use xlink:href="#DejaVuSans-65" transform="translate(354.5 0)"/>
       <use xlink:href="#DejaVuSans-2d" transform="translate(416.023438 0)"/>
       <use xlink:href="#DejaVuSans-54" transform="translate(442.982422 0)"/>
       <use xlink:href="#DejaVuSans-75" transform="translate(488.941406 0)"/>
       <use xlink:href="#DejaVuSans-72" transform="translate(552.320312 0)"/>
       <use xlink:href="#DejaVuSans-62" transform="translate(593.433594 0)"/>
       <use xlink:href="#DejaVuSans-6f" transform="translate(656.910156 0)"/>
      </g>
     </g>
    </g>
    <g id="xtick_8">
     <g id="line2d_8"/>
     <g id="text_8">
      <!-- Qwen-Image-2.0 -->
      <g style="fill: #6d8ba8" transform="translate(613.585239 421.704) rotate(-270) scale(0.14 -0.14)">
       <use xlink:href="#DejaVuSans-51"/>
       <use xlink:href="#DejaVuSans-77" transform="translate(78.710938 0)"/>
       <use xlink:href="#DejaVuSans-65" transform="translate(160.498047 0)"/>
       <use xlink:href="#DejaVuSans-6e" transform="translate(222.021484 0)"/>
       <use xlink:href="#DejaVuSans-2d" transform="translate(285.400391 0)"/>
       <use xlink:href="#DejaVuSans-49" transform="translate(321.484375 0)"/>
       <use xlink:href="#DejaVuSans-6d" transform="translate(350.976562 0)"/>
       <use xlink:href="#DejaVuSans-61" transform="translate(448.388672 0)"/>
       <use xlink:href="#DejaVuSans-67" transform="translate(509.667969 0)"/>
       <use xlink:href="#DejaVuSans-65" transform="translate(573.144531 0)"/>
       <use xlink:href="#DejaVuSans-2d" transform="translate(634.667969 0)"/>
       <use xlink:href="#DejaVuSans-32" transform="translate(670.751953 0)"/>
       <use xlink:href="#DejaVuSans-2e" transform="translate(734.375 0)"/>
       <use xlink:href="#DejaVuSans-30" transform="translate(766.162109 0)"/>
      </g>
     </g>
    </g>
    <g id="xtick_9">
     <g id="line2d_9"/>
     <g id="text_9">
      <!-- HiDream-O1-Image -->
      <g style="fill: #4fad73" transform="translate(688.606735 421.704) rotate(-270) scale(0.14 -0.14)">
       <defs>
        <path id="DejaVuSans-48" d="M 628 4666 
L 1259 4666 
L 1259 2753 
L 3553 2753 
L 3553 4666 
L 4184 4666 
L 4184 0 
L 3553 0 
L 3553 2222 
L 1259 2222 
L 1259 0 
L 628 0 
L 628 4666 
z
" transform="scale(0.015625)"/>
        <path id="DejaVuSans-44" d="M 1259 4147 
L 1259 519 
L 2022 519 
Q 2988 519 3436 956 
Q 3884 1394 3884 2338 
Q 3884 3275 3436 3711 
Q 2988 4147 2022 4147 
L 1259 4147 
z
M 628 4666 
L 1925 4666 
Q 3281 4666 3915 4102 
Q 4550 3538 4550 2338 
Q 4550 1131 3912 565 
Q 3275 0 1925 0 
L 628 0 
L 628 4666 
z
" transform="scale(0.015625)"/>
        <path id="DejaVuSans-4f" d="M 2522 4238 
Q 1834 4238 1429 3725 
Q 1025 3213 1025 2328 
Q 1025 1447 1429 934 
Q 1834 422 2522 422 
Q 3209 422 3611 934 
Q 4013 1447 4013 2328 
Q 4013 3213 3611 3725 
Q 3209 4238 2522 4238 
z
M 2522 4750 
Q 3503 4750 4090 4092 
Q 4678 3434 4678 2328 
Q 4678 1225 4090 567 
Q 3503 -91 2522 -91 
Q 1538 -91 948 565 
Q 359 1222 359 2328 
Q 359 3434 948 4092 
Q 1538 4750 2522 4750 
z
" transform="scale(0.015625)"/>
       </defs>
       <use xlink:href="#DejaVuSans-48"/>
       <use xlink:href="#DejaVuSans-69" transform="translate(75.195312 0)"/>
       <use xlink:href="#DejaVuSans-44" transform="translate(102.978516 0)"/>
       <use xlink:href="#DejaVuSans-72" transform="translate(179.980469 0)"/>
       <use xlink:href="#DejaVuSans-65" transform="translate(218.84375 0)"/>
       <use xlink:href="#DejaVuSans-61" transform="translate(280.367188 0)"/>
       <use xlink:href="#DejaVuSans-6d" transform="translate(341.646484 0)"/>
       <use xlink:href="#DejaVuSans-2d" transform="translate(439.058594 0)"/>
       <use xlink:href="#DejaVuSans-4f" transform="translate(477.892578 0)"/>
       <use xlink:href="#DejaVuSans-31" transform="translate(556.603516 0)"/>
       <use xlink:href="#DejaVuSans-2d" transform="translate(620.226562 0)"/>
       <use xlink:href="#DejaVuSans-49" transform="translate(656.310547 0)"/>
       <use xlink:href="#DejaVuSans-6d" transform="translate(685.802734 0)"/>
       <use xlink:href="#DejaVuSans-61" transform="translate(783.214844 0)"/>
       <use xlink:href="#DejaVuSans-67" transform="translate(844.494141 0)"/>
       <use xlink:href="#DejaVuSans-65" transform="translate(907.970703 0)"/>
      </g>
     </g>
    </g>
    <g id="xtick_10">
     <g id="line2d_10"/>
     <g id="text_10">
      <!-- HiDream-O1-Image-1.5 -->
      <g style="fill: #6d8ba8" transform="translate(763.62823 421.704) rotate(-270) scale(0.14 -0.14)">
       <use xlink:href="#DejaVuSans-48"/>
       <use xlink:href="#DejaVuSans-69" transform="translate(75.195312 0)"/>
       <use xlink:href="#DejaVuSans-44" transform="translate(102.978516 0)"/>
       <use xlink:href="#DejaVuSans-72" transform="translate(179.980469 0)"/>
       <use xlink:href="#DejaVuSans-65" transform="translate(218.84375 0)"/>
       <use xlink:href="#DejaVuSans-61" transform="translate(280.367188 0)"/>
       <use xlink:href="#DejaVuSans-6d" transform="translate(341.646484 0)"/>
       <use xlink:href="#DejaVuSans-2d" transform="translate(439.058594 0)"/>
       <use xlink:href="#DejaVuSans-4f" transform="translate(477.892578 0)"/>
       <use xlink:href="#DejaVuSans-31" transform="translate(556.603516 0)"/>
       <use xlink:href="#DejaVuSans-2d" transform="translate(620.226562 0)"/>
       <use xlink:href="#DejaVuSans-49" transform="translate(656.310547 0)"/>
       <use xlink:href="#DejaVuSans-6d" transform="translate(685.802734 0)"/>
       <use xlink:href="#DejaVuSans-61" transform="translate(783.214844 0)"/>
       <use xlink:href="#DejaVuSans-67" transform="translate(844.494141 0)"/>
       <use xlink:href="#DejaVuSans-65" transform="translate(907.970703 0)"/>
       <use xlink:href="#DejaVuSans-2d" transform="translate(969.494141 0)"/>
       <use xlink:href="#DejaVuSans-31" transform="translate(1005.578125 0)"/>
       <use xlink:href="#DejaVuSans-2e" transform="translate(1069.201172 0)"/>
       <use xlink:href="#DejaVuSans-35" transform="translate(1100.988281 0)"/>
      </g>
     </g>
    </g>
   </g>
   <g id="matplotlib.axis_2">
    <g id="ytick_1">
     <g id="line2d_11">
      <path d="M 47.285 418.204 
L 850.015 418.204 
" clip-path="url(#pc67867bef2)" style="fill: none; stroke: #9aa3ad; stroke-opacity: 0.28; stroke-width: 0.8; stroke-linecap: square"/>
     </g>
     <g id="line2d_12">
      <defs>
       <path id="meff1096cb4" d="M 0 0 
L -3.5 0 
" style="stroke: #8b949e; stroke-width: 0.8"/>
      </defs>
      <g>
       <use xlink:href="#meff1096cb4" x="47.285" y="418.204" style="fill: #8b949e; stroke: #8b949e; stroke-width: 0.8"/>
      </g>
     </g>
     <g id="text_11">
      <!-- 800 -->
      <g style="fill: #8b949e" transform="translate(15.47125 423.142984) scale(0.13 -0.13)">
       <defs>
        <path id="DejaVuSans-38" d="M 2034 2216 
Q 1584 2216 1326 1975 
Q 1069 1734 1069 1313 
Q 1069 891 1326 650 
Q 1584 409 2034 409 
Q 2484 409 2743 651 
Q 3003 894 3003 1313 
Q 3003 1734 2745 1975 
Q 2488 2216 2034 2216 
z
M 1403 2484 
Q 997 2584 770 2862 
Q 544 3141 544 3541 
Q 544 4100 942 4425 
Q 1341 4750 2034 4750 
Q 2731 4750 3128 4425 
Q 3525 4100 3525 3541 
Q 3525 3141 3298 2862 
Q 3072 2584 2669 2484 
Q 3125 2378 3379 2068 
Q 3634 1759 3634 1313 
Q 3634 634 3220 271 
Q 2806 -91 2034 -91 
Q 1263 -91 848 271 
Q 434 634 434 1313 
Q 434 1759 690 2068 
Q 947 2378 1403 2484 
z
M 1172 3481 
Q 1172 3119 1398 2916 
Q 1625 2713 2034 2713 
Q 2441 2713 2670 2916 
Q 2900 3119 2900 3481 
Q 2900 3844 2670 4047 
Q 2441 4250 2034 4250 
Q 1625 4250 1398 4047 
Q 1172 3844 1172 3481 
z
" transform="scale(0.015625)"/>
       </defs>
       <use xlink:href="#DejaVuSans-38"/>
       <use xlink:href="#DejaVuSans-30" transform="translate(63.623047 0)"/>
       <use xlink:href="#DejaVuSans-30" transform="translate(127.246094 0)"/>
      </g>
     </g>
    </g>
    <g id="ytick_2">
     <g id="line2d_13">
      <path d="M 47.285 348.5712 
L 850.015 348.5712 
" clip-path="url(#pc67867bef2)" style="fill: none; stroke: #9aa3ad; stroke-opacity: 0.28; stroke-width: 0.8; stroke-linecap: square"/>
     </g>
     <g id="line2d_14">
      <g>
       <use xlink:href="#meff1096cb4" x="47.285" y="348.5712" style="fill: #8b949e; stroke: #8b949e; stroke-width: 0.8"/>
      </g>
     </g>
     <g id="text_12">
      <!-- 900 -->
      <g style="fill: #8b949e" transform="translate(15.47125 353.510184) scale(0.13 -0.13)">
       <defs>
        <path id="DejaVuSans-39" d="M 703 97 
L 703 672 
Q 941 559 1184 500 
Q 1428 441 1663 441 
Q 2288 441 2617 861 
Q 2947 1281 2994 2138 
Q 2813 1869 2534 1725 
Q 2256 1581 1919 1581 
Q 1219 1581 811 2004 
Q 403 2428 403 3163 
Q 403 3881 828 4315 
Q 1253 4750 1959 4750 
Q 2769 4750 3195 4129 
Q 3622 3509 3622 2328 
Q 3622 1225 3098 567 
Q 2575 -91 1691 -91 
Q 1453 -91 1209 -44 
Q 966 3 703 97 
z
M 1959 2075 
Q 2384 2075 2632 2365 
Q 2881 2656 2881 3163 
Q 2881 3666 2632 3958 
Q 2384 4250 1959 4250 
Q 1534 4250 1286 3958 
Q 1038 3666 1038 3163 
Q 1038 2656 1286 2365 
Q 1534 2075 1959 2075 
z
" transform="scale(0.015625)"/>
       </defs>
       <use xlink:href="#DejaVuSans-39"/>
       <use xlink:href="#DejaVuSans-30" transform="translate(63.623047 0)"/>
       <use xlink:href="#DejaVuSans-30" transform="translate(127.246094 0)"/>
      </g>
     </g>
    </g>
    <g id="ytick_3">
     <g id="line2d_15">
      <path d="M 47.285 278.9384 
L 850.015 278.9384 
" clip-path="url(#pc67867bef2)" style="fill: none; stroke: #9aa3ad; stroke-opacity: 0.28; stroke-width: 0.8; stroke-linecap: square"/>
     </g>
     <g id="line2d_16">
      <g>
       <use xlink:href="#meff1096cb4" x="47.285" y="278.9384" style="fill: #8b949e; stroke: #8b949e; stroke-width: 0.8"/>
      </g>
     </g>
     <g id="text_13">
      <!-- 1000 -->
      <g style="fill: #8b949e" transform="translate(7.2 283.877384) scale(0.13 -0.13)">
       <use xlink:href="#DejaVuSans-31"/>
       <use xlink:href="#DejaVuSans-30" transform="translate(63.623047 0)"/>
       <use xlink:href="#DejaVuSans-30" transform="translate(127.246094 0)"/>
       <use xlink:href="#DejaVuSans-30" transform="translate(190.869141 0)"/>
      </g>
     </g>
    </g>
    <g id="ytick_4">
     <g id="line2d_17">
      <path d="M 47.285 209.3056 
L 850.015 209.3056 
" clip-path="url(#pc67867bef2)" style="fill: none; stroke: #9aa3ad; stroke-opacity: 0.28; stroke-width: 0.8; stroke-linecap: square"/>
     </g>
     <g id="line2d_18">
      <g>
       <use xlink:href="#meff1096cb4" x="47.285" y="209.3056" style="fill: #8b949e; stroke: #8b949e; stroke-width: 0.8"/>
      </g>
     </g>
     <g id="text_14">
      <!-- 1100 -->
      <g style="fill: #8b949e" transform="translate(7.2 214.244584) scale(0.13 -0.13)">
       <use xlink:href="#DejaVuSans-31"/>
       <use xlink:href="#DejaVuSans-31" transform="translate(63.623047 0)"/>
       <use xlink:href="#DejaVuSans-30" transform="translate(127.246094 0)"/>
       <use xlink:href="#DejaVuSans-30" transform="translate(190.869141 0)"/>
      </g>
     </g>
    </g>
    <g id="ytick_5">
     <g id="line2d_19">
      <path d="M 47.285 139.6728 
L 850.015 139.6728 
" clip-path="url(#pc67867bef2)" style="fill: none; stroke: #9aa3ad; stroke-opacity: 0.28; stroke-width: 0.8; stroke-linecap: square"/>
     </g>
     <g id="line2d_20">
      <g>
       <use xlink:href="#meff1096cb4" x="47.285" y="139.6728" style="fill: #8b949e; stroke: #8b949e; stroke-width: 0.8"/>
      </g>
     </g>
     <g id="text_15">
      <!-- 1200 -->
      <g style="fill: #8b949e" transform="translate(7.2 144.611784) scale(0.13 -0.13)">
       <use xlink:href="#DejaVuSans-31"/>
       <use xlink:href="#DejaVuSans-32" transform="translate(63.623047 0)"/>
       <use xlink:href="#DejaVuSans-30" transform="translate(127.246094 0)"/>
       <use xlink:href="#DejaVuSans-30" transform="translate(190.869141 0)"/>
      </g>
     </g>
    </g>
    <g id="ytick_6">
     <g id="line2d_21">
      <path d="M 47.285 70.04 
L 850.015 70.04 
" clip-path="url(#pc67867bef2)" style="fill: none; stroke: #9aa3ad; stroke-opacity: 0.28; stroke-width: 0.8; stroke-linecap: square"/>
     </g>
     <g id="line2d_22">
      <g>
       <use xlink:href="#meff1096cb4" x="47.285" y="70.04" style="fill: #8b949e; stroke: #8b949e; stroke-width: 0.8"/>
      </g>
     </g>
     <g id="text_16">
      <!-- 1300 -->
      <g style="fill: #8b949e" transform="translate(7.2 74.978984) scale(0.13 -0.13)">
       <use xlink:href="#DejaVuSans-31"/>
       <use xlink:href="#DejaVuSans-33" transform="translate(63.623047 0)"/>
       <use xlink:href="#DejaVuSans-30" transform="translate(127.246094 0)"/>
       <use xlink:href="#DejaVuSans-30" transform="translate(190.869141 0)"/>
      </g>
     </g>
    </g>
   </g>
   <g id="FillBetweenPolyCollection_1">
    <defs>
     <path id="mf507c0cb46" d="M 71.291879 -578.746639 
L 71.291879 -508.696042 
L 113.303916 -508.696042 
L 113.303916 -578.746639 
L 113.303916 -578.746639 
L 71.291879 -578.746639 
z
" style="stroke: #7f95ad; stroke-opacity: 0.25"/>
    </defs>
    <g clip-path="url(#pc67867bef2)">
     <use xlink:href="#mf507c0cb46" x="0" y="684.369" style="fill: #7f95ad; fill-opacity: 0.25; stroke: #7f95ad; stroke-opacity: 0.25"/>
    </g>
   </g>
   <g id="FillBetweenPolyCollection_2">
    <defs>
     <path id="m1a4e0cb178" d="M 146.313374 -488.50253 
L 146.313374 -443.937538 
L 188.325411 -443.937538 
L 188.325411 -488.50253 
L 188.325411 -488.50253 
L 146.313374 -488.50253 
z
" style="stroke: #7f95ad; stroke-opacity: 0.25"/>
    </defs>
    <g clip-path="url(#pc67867bef2)">
     <use xlink:href="#m1a4e0cb178" x="0" y="684.369" style="fill: #7f95ad; fill-opacity: 0.25; stroke: #7f95ad; stroke-opacity: 0.25"/>
    </g>
   </g>
   <g id="FillBetweenPolyCollection_3">
    <defs>
     <path id="m29b3db46b7" d="M 221.334869 -457.724833 
L 221.334869 -416.780746 
L 263.346907 -416.780746 
L 263.346907 -457.724833 
L 263.346907 -457.724833 
L 221.334869 -457.724833 
z
" style="stroke: #f1a763; stroke-opacity: 0.25"/>
    </defs>
    <g clip-path="url(#pc67867bef2)">
     <use xlink:href="#m29b3db46b7" x="0" y="684.369" style="fill: #f1a763; fill-opacity: 0.25; stroke: #f1a763; stroke-opacity: 0.25"/>
    </g>
   </g>
   <g id="FillBetweenPolyCollection_4">
    <defs>
     <path id="m1d111a472c" d="M 296.356364 -451.527514 
L 296.356364 -406.68399 
L 338.368402 -406.68399 
L 338.368402 -451.527514 
L 338.368402 -451.527514 
L 296.356364 -451.527514 
z
" style="stroke: #7f95ad; stroke-opacity: 0.25"/>
    </defs>
    <g clip-path="url(#pc67867bef2)">
     <use xlink:href="#m1d111a472c" x="0" y="684.369" style="fill: #7f95ad; fill-opacity: 0.25; stroke: #7f95ad; stroke-opacity: 0.25"/>
    </g>
   </g>
   <g id="FillBetweenPolyCollection_5">
    <defs>
     <path id="m94fb5a23d4" d="M 371.37786 -435.929766 
L 371.37786 -401.322265 
L 413.389897 -401.322265 
L 413.389897 -435.929766 
L 413.389897 -435.929766 
L 371.37786 -435.929766 
z
" style="stroke: #f1a763; stroke-opacity: 0.25"/>
    </defs>
    <g clip-path="url(#pc67867bef2)">
     <use xlink:href="#m94fb5a23d4" x="0" y="684.369" style="fill: #f1a763; fill-opacity: 0.25; stroke: #f1a763; stroke-opacity: 0.25"/>
    </g>
   </g>
   <g id="FillBetweenPolyCollection_6">
    <defs>
     <path id="m5b5c041fc5" d="M 446.399355 -415.179192 
L 446.399355 -373.678043 
L 488.411393 -373.678043 
L 488.411393 -415.179192 
L 488.411393 -415.179192 
L 446.399355 -415.179192 
z
" style="stroke: #7f95ad; stroke-opacity: 0.25"/>
    </defs>
    <g clip-path="url(#pc67867bef2)">
     <use xlink:href="#m5b5c041fc5" x="0" y="684.369" style="fill: #7f95ad; fill-opacity: 0.25; stroke: #7f95ad; stroke-opacity: 0.25"/>
    </g>
   </g>
   <g id="FillBetweenPolyCollection_7">
    <defs>
     <path id="m307ef4aceb" d="M 521.42085 -396.169438 
L 521.42085 -358.567726 
L 563.432888 -358.567726 
L 563.432888 -396.169438 
L 563.432888 -396.169438 
L 521.42085 -396.169438 
z
" style="stroke: #6fbf8f; stroke-opacity: 0.25"/>
    </defs>
    <g clip-path="url(#pc67867bef2)">
     <use xlink:href="#m307ef4aceb" x="0" y="684.369" style="fill: #6fbf8f; fill-opacity: 0.25; stroke: #6fbf8f; stroke-opacity: 0.25"/>
    </g>
   </g>
   <g id="FillBetweenPolyCollection_8">
    <defs>
     <path id="m41be3a5938" d="M 596.442346 -386.908275 
L 596.442346 -346.103454 
L 638.454383 -346.103454 
L 638.454383 -386.908275 
L 638.454383 -386.908275 
L 596.442346 -386.908275 
z
" style="stroke: #7f95ad; stroke-opacity: 0.25"/>
    </defs>
    <g clip-path="url(#pc67867bef2)">
     <use xlink:href="#m41be3a5938" x="0" y="684.369" style="fill: #7f95ad; fill-opacity: 0.25; stroke: #7f95ad; stroke-opacity: 0.25"/>
    </g>
   </g>
   <g id="FillBetweenPolyCollection_9">
    <defs>
     <path id="mb176e93af5" d="M 671.463841 -331.759098 
L 671.463841 -291.720238 
L 713.475879 -291.720238 
L 713.475879 -331.759098 
L 713.475879 -331.759098 
L 671.463841 -331.759098 
z
" style="stroke: #6fbf8f; stroke-opacity: 0.25"/>
    </defs>
    <g clip-path="url(#pc67867bef2)">
     <use xlink:href="#mb176e93af5" x="0" y="684.369" style="fill: #6fbf8f; fill-opacity: 0.25; stroke: #6fbf8f; stroke-opacity: 0.25"/>
    </g>
   </g>
   <g id="FillBetweenPolyCollection_10">
    <defs>
     <path id="mf023323044" d="M 746.485336 -323.12463 
L 746.485336 -285.731817 
L 788.497374 -285.731817 
L 788.497374 -323.12463 
L 788.497374 -323.12463 
L 746.485336 -323.12463 
z
" style="stroke: #7f95ad; stroke-opacity: 0.25"/>
    </defs>
    <g clip-path="url(#pc67867bef2)">
     <use xlink:href="#mf023323044" x="0" y="684.369" style="fill: #7f95ad; fill-opacity: 0.25; stroke: #7f95ad; stroke-opacity: 0.25"/>
    </g>
   </g>
   <g id="patch_3">
    <path d="M 47.285 418.204 
L 47.285 70.04 
" style="fill: none; stroke: #9aa3ad; stroke-width: 0.8; stroke-linejoin: miter; stroke-linecap: square"/>
   </g>
   <g id="patch_4">
    <path d="M 47.285 418.204 
L 850.015 418.204 
" style="fill: none; stroke: #9aa3ad; stroke-width: 0.8; stroke-linejoin: miter; stroke-linecap: square"/>
   </g>
   <g id="line2d_23">
    <path d="M 92.297897 175.672958 
L 92.297897 105.622361 
" clip-path="url(#pc67867bef2)" style="fill: none; stroke: #8fa6bf; stroke-width: 2.5; stroke-linecap: round"/>
   </g>
   <g id="line2d_24">
    <path d="M 81.794888 175.672958 
L 102.800907 175.672958 
" clip-path="url(#pc67867bef2)" style="fill: none; stroke: #8fa6bf; stroke-width: 2; stroke-linecap: round"/>
   </g>
   <g id="line2d_25">
    <path d="M 81.794888 105.622361 
L 102.800907 105.622361 
" clip-path="url(#pc67867bef2)" style="fill: none; stroke: #8fa6bf; stroke-width: 2; stroke-linecap: round"/>
   </g>
   <g id="line2d_26">
    <path d="M 167.319393 240.431462 
L 167.319393 195.86647 
" clip-path="url(#pc67867bef2)" style="fill: none; stroke: #8fa6bf; stroke-width: 2.5; stroke-linecap: round"/>
   </g>
   <g id="line2d_27">
    <path d="M 156.816383 240.431462 
L 177.822402 240.431462 
" clip-path="url(#pc67867bef2)" style="fill: none; stroke: #8fa6bf; stroke-width: 2; stroke-linecap: round"/>
   </g>
   <g id="line2d_28">
    <path d="M 156.816383 195.86647 
L 177.822402 195.86647 
" clip-path="url(#pc67867bef2)" style="fill: none; stroke: #8fa6bf; stroke-width: 2; stroke-linecap: round"/>
   </g>
   <g id="line2d_29">
    <path d="M 242.340888 267.588254 
L 242.340888 226.644167 
" clip-path="url(#pc67867bef2)" style="fill: none; stroke: #d97745; stroke-width: 2.5; stroke-linecap: round"/>
   </g>
   <g id="line2d_30">
    <path d="M 231.837879 267.588254 
L 252.843897 267.588254 
" clip-path="url(#pc67867bef2)" style="fill: none; stroke: #d97745; stroke-width: 2; stroke-linecap: round"/>
   </g>
   <g id="line2d_31">
    <path d="M 231.837879 226.644167 
L 252.843897 226.644167 
" clip-path="url(#pc67867bef2)" style="fill: none; stroke: #d97745; stroke-width: 2; stroke-linecap: round"/>
   </g>
   <g id="line2d_32">
    <path d="M 317.362383 277.68501 
L 317.362383 232.841486 
" clip-path="url(#pc67867bef2)" style="fill: none; stroke: #8fa6bf; stroke-width: 2.5; stroke-linecap: round"/>
   </g>
   <g id="line2d_33">
    <path d="M 306.859374 277.68501 
L 327.865393 277.68501 
" clip-path="url(#pc67867bef2)" style="fill: none; stroke: #8fa6bf; stroke-width: 2; stroke-linecap: round"/>
   </g>
   <g id="line2d_34">
    <path d="M 306.859374 232.841486 
L 327.865393 232.841486 
" clip-path="url(#pc67867bef2)" style="fill: none; stroke: #8fa6bf; stroke-width: 2; stroke-linecap: round"/>
   </g>
   <g id="line2d_35">
    <path d="M 392.383879 283.046735 
L 392.383879 248.439234 
" clip-path="url(#pc67867bef2)" style="fill: none; stroke: #d97745; stroke-width: 2.5; stroke-linecap: round"/>
   </g>
   <g id="line2d_36">
    <path d="M 381.880869 283.046735 
L 402.886888 283.046735 
" clip-path="url(#pc67867bef2)" style="fill: none; stroke: #d97745; stroke-width: 2; stroke-linecap: round"/>
   </g>
   <g id="line2d_37">
    <path d="M 381.880869 248.439234 
L 402.886888 248.439234 
" clip-path="url(#pc67867bef2)" style="fill: none; stroke: #d97745; stroke-width: 2; stroke-linecap: round"/>
   </g>
   <g id="line2d_38">
    <path d="M 467.405374 310.690957 
L 467.405374 269.189808 
" clip-path="url(#pc67867bef2)" style="fill: none; stroke: #8fa6bf; stroke-width: 2.5; stroke-linecap: round"/>
   </g>
   <g id="line2d_39">
    <path d="M 456.902364 310.690957 
L 477.908383 310.690957 
" clip-path="url(#pc67867bef2)" style="fill: none; stroke: #8fa6bf; stroke-width: 2; stroke-linecap: round"/>
   </g>
   <g id="line2d_40">
    <path d="M 456.902364 269.189808 
L 477.908383 269.189808 
" clip-path="url(#pc67867bef2)" style="fill: none; stroke: #8fa6bf; stroke-width: 2; stroke-linecap: round"/>
   </g>
   <g id="line2d_41">
    <path d="M 542.426869 325.801274 
L 542.426869 288.199562 
" clip-path="url(#pc67867bef2)" style="fill: none; stroke: #73c993; stroke-width: 2.5; stroke-linecap: round"/>
   </g>
   <g id="line2d_42">
    <path d="M 531.92386 325.801274 
L 552.929879 325.801274 
" clip-path="url(#pc67867bef2)" style="fill: none; stroke: #73c993; stroke-width: 2; stroke-linecap: round"/>
   </g>
   <g id="line2d_43">
    <path d="M 531.92386 288.199562 
L 552.929879 288.199562 
" clip-path="url(#pc67867bef2)" style="fill: none; stroke: #73c993; stroke-width: 2; stroke-linecap: round"/>
   </g>
   <g id="line2d_44">
    <path d="M 617.448364 338.265546 
L 617.448364 297.460725 
" clip-path="url(#pc67867bef2)" style="fill: none; stroke: #8fa6bf; stroke-width: 2.5; stroke-linecap: round"/>
   </g>
   <g id="line2d_45">
    <path d="M 606.945355 338.265546 
L 627.951374 338.265546 
" clip-path="url(#pc67867bef2)" style="fill: none; stroke: #8fa6bf; stroke-width: 2; stroke-linecap: round"/>
   </g>
   <g id="line2d_46">
    <path d="M 606.945355 297.460725 
L 627.951374 297.460725 
" clip-path="url(#pc67867bef2)" style="fill: none; stroke: #8fa6bf; stroke-width: 2; stroke-linecap: round"/>
   </g>
   <g id="line2d_47">
    <path d="M 692.46986 392.648762 
L 692.46986 352.609902 
" clip-path="url(#pc67867bef2)" style="fill: none; stroke: #73c993; stroke-width: 2.5; stroke-linecap: round"/>
   </g>
   <g id="line2d_48">
    <path d="M 681.96685 392.648762 
L 702.972869 392.648762 
" clip-path="url(#pc67867bef2)" style="fill: none; stroke: #73c993; stroke-width: 2; stroke-linecap: round"/>
   </g>
   <g id="line2d_49">
    <path d="M 681.96685 352.609902 
L 702.972869 352.609902 
" clip-path="url(#pc67867bef2)" style="fill: none; stroke: #73c993; stroke-width: 2; stroke-linecap: round"/>
   </g>
   <g id="line2d_50">
    <path d="M 767.491355 398.637183 
L 767.491355 361.24437 
" clip-path="url(#pc67867bef2)" style="fill: none; stroke: #8fa6bf; stroke-width: 2.5; stroke-linecap: round"/>
   </g>
   <g id="line2d_51">
    <path d="M 756.988346 398.637183 
L 777.994364 398.637183 
" clip-path="url(#pc67867bef2)" style="fill: none; stroke: #8fa6bf; stroke-width: 2; stroke-linecap: round"/>
   </g>
   <g id="line2d_52">
    <path d="M 756.988346 361.24437 
L 777.994364 361.24437 
" clip-path="url(#pc67867bef2)" style="fill: none; stroke: #8fa6bf; stroke-width: 2; stroke-linecap: round"/>
   </g>
   <g id="text_17">
    <!-- 1196 -->
    <g style="fill: #8b949e" transform="translate(116.304776 145.908628) scale(0.12 -0.12)">
     <defs>
      <path id="DejaVuSans-36" d="M 2113 2584 
Q 1688 2584 1439 2293 
Q 1191 2003 1191 1497 
Q 1191 994 1439 701 
Q 1688 409 2113 409 
Q 2538 409 2786 701 
Q 3034 994 3034 1497 
Q 3034 2003 2786 2293 
Q 2538 2584 2113 2584 
z
M 3366 4563 
L 3366 3988 
Q 3128 4100 2886 4159 
Q 2644 4219 2406 4219 
Q 1781 4219 1451 3797 
Q 1122 3375 1075 2522 
Q 1259 2794 1537 2939 
Q 1816 3084 2150 3084 
Q 2853 3084 3261 2657 
Q 3669 2231 3669 1497 
Q 3669 778 3244 343 
Q 2819 -91 2113 -91 
Q 1303 -91 875 529 
Q 447 1150 447 2328 
Q 447 3434 972 4092 
Q 1497 4750 2381 4750 
Q 2619 4750 2861 4703 
Q 3103 4656 3366 4563 
z
" transform="scale(0.015625)"/>
     </defs>
     <use xlink:href="#DejaVuSans-31"/>
     <use xlink:href="#DejaVuSans-31" transform="translate(63.623047 0)"/>
     <use xlink:href="#DejaVuSans-39" transform="translate(127.246094 0)"/>
     <use xlink:href="#DejaVuSans-36" transform="translate(190.869141 0)"/>
    </g>
   </g>
   <g id="text_18">
    <!-- 1087 -->
    <g style="fill: #8b949e" transform="translate(191.326271 221.529848) scale(0.12 -0.12)">
     <defs>
      <path id="DejaVuSans-37" d="M 525 4666 
L 3525 4666 
L 3525 4397 
L 1831 0 
L 1172 0 
L 2766 4134 
L 525 4134 
L 525 4666 
z
" transform="scale(0.015625)"/>
     </defs>
     <use xlink:href="#DejaVuSans-31"/>
     <use xlink:href="#DejaVuSans-30" transform="translate(63.623047 0)"/>
     <use xlink:href="#DejaVuSans-38" transform="translate(127.246094 0)"/>
     <use xlink:href="#DejaVuSans-37" transform="translate(190.869141 0)"/>
    </g>
   </g>
   <g id="text_19">
    <!-- 1048 -->
    <g style="fill: #8b949e" transform="translate(266.347766 249.034804) scale(0.12 -0.12)">
     <defs>
      <path id="DejaVuSans-34" d="M 2419 4116 
L 825 1625 
L 2419 1625 
L 2419 4116 
z
M 2253 4666 
L 3047 4666 
L 3047 1625 
L 3713 1625 
L 3713 1100 
L 3047 1100 
L 3047 0 
L 2419 0 
L 2419 1100 
L 313 1100 
L 313 1709 
L 2253 4666 
z
" transform="scale(0.015625)"/>
     </defs>
     <use xlink:href="#DejaVuSans-31"/>
     <use xlink:href="#DejaVuSans-30" transform="translate(63.623047 0)"/>
     <use xlink:href="#DejaVuSans-34" transform="translate(127.246094 0)"/>
     <use xlink:href="#DejaVuSans-38" transform="translate(190.869141 0)"/>
    </g>
   </g>
   <g id="text_20">
    <!-- 1032 -->
    <g style="fill: #8b949e" transform="translate(341.369262 260.315318) scale(0.12 -0.12)">
     <use xlink:href="#DejaVuSans-31"/>
     <use xlink:href="#DejaVuSans-30" transform="translate(63.623047 0)"/>
     <use xlink:href="#DejaVuSans-33" transform="translate(127.246094 0)"/>
     <use xlink:href="#DejaVuSans-32" transform="translate(190.869141 0)"/>
    </g>
   </g>
   <g id="text_21">
    <!-- 1021 -->
    <g style="fill: #8b949e" transform="translate(416.390757 267.83566) scale(0.12 -0.12)">
     <use xlink:href="#DejaVuSans-31"/>
     <use xlink:href="#DejaVuSans-30" transform="translate(63.623047 0)"/>
     <use xlink:href="#DejaVuSans-32" transform="translate(127.246094 0)"/>
     <use xlink:href="#DejaVuSans-31" transform="translate(190.869141 0)"/>
    </g>
   </g>
   <g id="text_22">
    <!-- 988 -->
    <g style="fill: #8b949e" transform="translate(491.412252 290.884117) scale(0.12 -0.12)">
     <use xlink:href="#DejaVuSans-39"/>
     <use xlink:href="#DejaVuSans-38" transform="translate(63.623047 0)"/>
     <use xlink:href="#DejaVuSans-38" transform="translate(127.246094 0)"/>
    </g>
   </g>
   <g id="text_23">
    <!-- 960 -->
    <g style="fill: #8b949e" transform="translate(566.433748 309.824239) scale(0.12 -0.12)">
     <use xlink:href="#DejaVuSans-39"/>
     <use xlink:href="#DejaVuSans-36" transform="translate(63.623047 0)"/>
     <use xlink:href="#DejaVuSans-30" transform="translate(127.246094 0)"/>
    </g>
   </g>
   <g id="text_24">
    <!-- 946 -->
    <g style="fill: #8b949e" transform="translate(641.455243 319.712096) scale(0.12 -0.12)">
     <use xlink:href="#DejaVuSans-39"/>
     <use xlink:href="#DejaVuSans-34" transform="translate(63.623047 0)"/>
     <use xlink:href="#DejaVuSans-36" transform="translate(127.246094 0)"/>
    </g>
   </g>
   <g id="text_25">
    <!-- 868 -->
    <g style="fill: #8b949e" transform="translate(716.476738 374.373844) scale(0.12 -0.12)">
     <use xlink:href="#DejaVuSans-38"/>
     <use xlink:href="#DejaVuSans-36" transform="translate(63.623047 0)"/>
     <use xlink:href="#DejaVuSans-38" transform="translate(127.246094 0)"/>
    </g>
   </g>
   <g id="text_26">
    <!-- 855 -->
    <g style="fill: #8b949e" transform="translate(791.498234 383.147577) scale(0.12 -0.12)">
     <use xlink:href="#DejaVuSans-38"/>
     <use xlink:href="#DejaVuSans-35" transform="translate(63.623047 0)"/>
     <use xlink:href="#DejaVuSans-35" transform="translate(127.246094 0)"/>
    </g>
   </g>
   <g id="text_27">
    <!-- Arena-style ELO Score -->
    <g style="fill: #8b949e" transform="translate(329.9475 50.04) scale(0.19 -0.19)">
     <defs>
      <path id="DejaVuSans-Bold-41" d="M 3419 850 
L 1538 850 
L 1241 0 
L 31 0 
L 1759 4666 
L 3194 4666 
L 4922 0 
L 3713 0 
L 3419 850 
z
M 1838 1716 
L 3116 1716 
L 2478 3572 
L 1838 1716 
z
" transform="scale(0.015625)"/>
      <path id="DejaVuSans-Bold-73" d="M 3272 3391 
L 3272 2541 
Q 2913 2691 2578 2766 
Q 2244 2841 1947 2841 
Q 1628 2841 1473 2761 
Q 1319 2681 1319 2516 
Q 1319 2381 1436 2309 
Q 1553 2238 1856 2203 
L 2053 2175 
Q 2913 2066 3209 1816 
Q 3506 1566 3506 1031 
Q 3506 472 3093 190 
Q 2681 -91 1863 -91 
Q 1516 -91 1145 -36 
Q 775 19 384 128 
L 384 978 
Q 719 816 1070 734 
Q 1422 653 1784 653 
Q 2113 653 2278 743 
Q 2444 834 2444 1013 
Q 2444 1163 2330 1236 
Q 2216 1309 1875 1350 
L 1678 1375 
Q 931 1469 631 1722 
Q 331 1975 331 2491 
Q 331 3047 712 3315 
Q 1094 3584 1881 3584 
Q 2191 3584 2531 3537 
Q 2872 3491 3272 3391 
z
" transform="scale(0.015625)"/>
      <path id="DejaVuSans-Bold-74" d="M 1759 4494 
L 1759 3500 
L 2913 3500 
L 2913 2700 
L 1759 2700 
L 1759 1216 
Q 1759 972 1856 886 
Q 1953 800 2241 800 
L 2816 800 
L 2816 0 
L 1856 0 
Q 1194 0 917 276 
Q 641 553 641 1216 
L 641 2700 
L 84 2700 
L 84 3500 
L 641 3500 
L 641 4494 
L 1759 4494 
z
" transform="scale(0.015625)"/>
      <path id="DejaVuSans-Bold-79" d="M 78 3500 
L 1197 3500 
L 2138 1125 
L 2938 3500 
L 4056 3500 
L 2584 -331 
Q 2363 -916 2067 -1148 
Q 1772 -1381 1288 -1381 
L 641 -1381 
L 641 -647 
L 991 -647 
Q 1275 -647 1404 -556 
Q 1534 -466 1606 -231 
L 1638 -134 
L 78 3500 
z
" transform="scale(0.015625)"/>
      <path id="DejaVuSans-Bold-6c" d="M 538 4863 
L 1656 4863 
L 1656 0 
L 538 0 
L 538 4863 
z
" transform="scale(0.015625)"/>
      <path id="DejaVuSans-Bold-20" transform="scale(0.015625)"/>
      <path id="DejaVuSans-Bold-45" d="M 588 4666 
L 3834 4666 
L 3834 3756 
L 1791 3756 
L 1791 2888 
L 3713 2888 
L 3713 1978 
L 1791 1978 
L 1791 909 
L 3903 909 
L 3903 0 
L 588 0 
L 588 4666 
z
" transform="scale(0.015625)"/>
      <path id="DejaVuSans-Bold-4c" d="M 588 4666 
L 1791 4666 
L 1791 909 
L 3903 909 
L 3903 0 
L 588 0 
L 588 4666 
z
" transform="scale(0.015625)"/>
      <path id="DejaVuSans-Bold-4f" d="M 2719 3878 
Q 2169 3878 1866 3472 
Q 1563 3066 1563 2328 
Q 1563 1594 1866 1187 
Q 2169 781 2719 781 
Q 3272 781 3575 1187 
Q 3878 1594 3878 2328 
Q 3878 3066 3575 3472 
Q 3272 3878 2719 3878 
z
M 2719 4750 
Q 3844 4750 4481 4106 
Q 5119 3463 5119 2328 
Q 5119 1197 4481 553 
Q 3844 -91 2719 -91 
Q 1597 -91 958 553 
Q 319 1197 319 2328 
Q 319 3463 958 4106 
Q 1597 4750 2719 4750 
z
" transform="scale(0.015625)"/>
      <path id="DejaVuSans-Bold-53" d="M 3834 4519 
L 3834 3531 
Q 3450 3703 3084 3790 
Q 2719 3878 2394 3878 
Q 1963 3878 1756 3759 
Q 1550 3641 1550 3391 
Q 1550 3203 1689 3098 
Q 1828 2994 2194 2919 
L 2706 2816 
Q 3484 2659 3812 2340 
Q 4141 2022 4141 1434 
Q 4141 663 3683 286 
Q 3225 -91 2284 -91 
Q 1841 -91 1394 -6 
Q 947 78 500 244 
L 500 1259 
Q 947 1022 1364 901 
Q 1781 781 2169 781 
Q 2563 781 2772 912 
Q 2981 1044 2981 1288 
Q 2981 1506 2839 1625 
Q 2697 1744 2272 1838 
L 1806 1941 
Q 1106 2091 782 2419 
Q 459 2747 459 3303 
Q 459 4000 909 4375 
Q 1359 4750 2203 4750 
Q 2588 4750 2994 4692 
Q 3400 4634 3834 4519 
z
" transform="scale(0.015625)"/>
      <path id="DejaVuSans-Bold-63" d="M 3366 3391 
L 3366 2478 
Q 3138 2634 2908 2709 
Q 2678 2784 2431 2784 
Q 1963 2784 1702 2511 
Q 1441 2238 1441 1747 
Q 1441 1256 1702 982 
Q 1963 709 2431 709 
Q 2694 709 2930 787 
Q 3166 866 3366 1019 
L 3366 103 
Q 3103 6 2833 -42 
Q 2563 -91 2291 -91 
Q 1344 -91 809 395 
Q 275 881 275 1747 
Q 275 2613 809 3098 
Q 1344 3584 2291 3584 
Q 2566 3584 2833 3536 
Q 3100 3488 3366 3391 
z
" transform="scale(0.015625)"/>
     </defs>
     <use xlink:href="#DejaVuSans-Bold-41"/>
     <use xlink:href="#DejaVuSans-Bold-72" transform="translate(77.392578 0)"/>
     <use xlink:href="#DejaVuSans-Bold-65" transform="translate(126.708984 0)"/>
     <use xlink:href="#DejaVuSans-Bold-6e" transform="translate(194.53125 0)"/>
     <use xlink:href="#DejaVuSans-Bold-61" transform="translate(265.722656 0)"/>
     <use xlink:href="#DejaVuSans-Bold-2d" transform="translate(333.203125 0)"/>
     <use xlink:href="#DejaVuSans-Bold-73" transform="translate(374.707031 0)"/>
     <use xlink:href="#DejaVuSans-Bold-74" transform="translate(434.228516 0)"/>
     <use xlink:href="#DejaVuSans-Bold-79" transform="translate(482.03125 0)"/>
     <use xlink:href="#DejaVuSans-Bold-6c" transform="translate(547.216797 0)"/>
     <use xlink:href="#DejaVuSans-Bold-65" transform="translate(581.494141 0)"/>
     <use xlink:href="#DejaVuSans-Bold-20" transform="translate(649.316406 0)"/>
     <use xlink:href="#DejaVuSans-Bold-45" transform="translate(684.130859 0)"/>
     <use xlink:href="#DejaVuSans-Bold-4c" transform="translate(752.441406 0)"/>
     <use xlink:href="#DejaVuSans-Bold-4f" transform="translate(812.537109 0)"/>
     <use xlink:href="#DejaVuSans-Bold-20" transform="translate(897.546875 0)"/>
     <use xlink:href="#DejaVuSans-Bold-53" transform="translate(932.361328 0)"/>
     <use xlink:href="#DejaVuSans-Bold-63" transform="translate(1004.382812 0)"/>
     <use xlink:href="#DejaVuSans-Bold-6f" transform="translate(1063.660156 0)"/>
     <use xlink:href="#DejaVuSans-Bold-72" transform="translate(1132.361328 0)"/>
     <use xlink:href="#DejaVuSans-Bold-65" transform="translate(1181.677734 0)"/>
    </g>
   </g>
   <g id="legend_1">
    <g id="patch_5">
     <path d="M 661.14125 137.684687 
L 840.915 137.684687 
Q 843.515 137.684687 843.515 135.084687 
L 843.515 79.14 
Q 843.515 76.54 840.915 76.54 
L 661.14125 76.54 
Q 658.54125 76.54 658.54125 79.14 
L 658.54125 135.084687 
Q 658.54125 137.684687 661.14125 137.684687 
L 661.14125 137.684687 
z
" style="fill: none; opacity: 0.18; stroke: #9aa3ad; stroke-linejoin: miter"/>
    </g>
    <g id="patch_6">
     <path d="M 663.74125 91.617969 
L 689.74125 91.617969 
L 689.74125 82.517969 
L 663.74125 82.517969 
z
" style="fill: #f1a763; stroke: #d97745; stroke-width: 1.5; stroke-linejoin: miter"/>
    </g>
    <g id="text_28">
     <!-- Boogu (Open-source) -->
     <g style="fill: #8b949e" transform="translate(700.14125 91.617969) scale(0.13 -0.13)">
      <defs>
       <path id="DejaVuSans-20" transform="scale(0.015625)"/>
       <path id="DejaVuSans-28" d="M 1984 4856 
Q 1566 4138 1362 3434 
Q 1159 2731 1159 2009 
Q 1159 1288 1364 580 
Q 1569 -128 1984 -844 
L 1484 -844 
Q 1016 -109 783 600 
Q 550 1309 550 2009 
Q 550 2706 781 3412 
Q 1013 4119 1484 4856 
L 1984 4856 
z
" transform="scale(0.015625)"/>
       <path id="DejaVuSans-70" d="M 1159 525 
L 1159 -1331 
L 581 -1331 
L 581 3500 
L 1159 3500 
L 1159 2969 
Q 1341 3281 1617 3432 
Q 1894 3584 2278 3584 
Q 2916 3584 3314 3078 
Q 3713 2572 3713 1747 
Q 3713 922 3314 415 
Q 2916 -91 2278 -91 
Q 1894 -91 1617 61 
Q 1341 213 1159 525 
z
M 3116 1747 
Q 3116 2381 2855 2742 
Q 2594 3103 2138 3103 
Q 1681 3103 1420 2742 
Q 1159 2381 1159 1747 
Q 1159 1113 1420 752 
Q 1681 391 2138 391 
Q 2594 391 2855 752 
Q 3116 1113 3116 1747 
z
" transform="scale(0.015625)"/>
       <path id="DejaVuSans-73" d="M 2834 3397 
L 2834 2853 
Q 2591 2978 2328 3040 
Q 2066 3103 1784 3103 
Q 1356 3103 1142 2972 
Q 928 2841 928 2578 
Q 928 2378 1081 2264 
Q 1234 2150 1697 2047 
L 1894 2003 
Q 2506 1872 2764 1633 
Q 3022 1394 3022 966 
Q 3022 478 2636 193 
Q 2250 -91 1575 -91 
Q 1294 -91 989 -36 
Q 684 19 347 128 
L 347 722 
Q 666 556 975 473 
Q 1284 391 1588 391 
Q 1994 391 2212 530 
Q 2431 669 2431 922 
Q 2431 1156 2273 1281 
Q 2116 1406 1581 1522 
L 1381 1569 
Q 847 1681 609 1914 
Q 372 2147 372 2553 
Q 372 3047 722 3315 
Q 1072 3584 1716 3584 
Q 2034 3584 2315 3537 
Q 2597 3491 2834 3397 
z
" transform="scale(0.015625)"/>
       <path id="DejaVuSans-63" d="M 3122 3366 
L 3122 2828 
Q 2878 2963 2633 3030 
Q 2388 3097 2138 3097 
Q 1578 3097 1268 2742 
Q 959 2388 959 1747 
Q 959 1106 1268 751 
Q 1578 397 2138 397 
Q 2388 397 2633 464 
Q 2878 531 3122 666 
L 3122 134 
Q 2881 22 2623 -34 
Q 2366 -91 2075 -91 
Q 1284 -91 818 406 
Q 353 903 353 1747 
Q 353 2603 823 3093 
Q 1294 3584 2113 3584 
Q 2378 3584 2631 3529 
Q 2884 3475 3122 3366 
z
" transform="scale(0.015625)"/>
       <path id="DejaVuSans-29" d="M 513 4856 
L 1013 4856 
Q 1481 4119 1714 3412 
Q 1947 2706 1947 2009 
Q 1947 1309 1714 600 
Q 1481 -109 1013 -844 
L 513 -844 
Q 928 -128 1133 580 
Q 1338 1288 1338 2009 
Q 1338 2731 1133 3434 
Q 928 4138 513 4856 
z
" transform="scale(0.015625)"/>
      </defs>
      <use xlink:href="#DejaVuSans-42"/>
      <use xlink:href="#DejaVuSans-6f" transform="translate(68.603516 0)"/>
      <use xlink:href="#DejaVuSans-6f" transform="translate(129.785156 0)"/>
      <use xlink:href="#DejaVuSans-67" transform="translate(190.966797 0)"/>
      <use xlink:href="#DejaVuSans-75" transform="translate(254.443359 0)"/>
      <use xlink:href="#DejaVuSans-20" transform="translate(317.822266 0)"/>
      <use xlink:href="#DejaVuSans-28" transform="translate(349.609375 0)"/>
      <use xlink:href="#DejaVuSans-4f" transform="translate(388.623047 0)"/>
      <use xlink:href="#DejaVuSans-70" transform="translate(467.333984 0)"/>
      <use xlink:href="#DejaVuSans-65" transform="translate(530.810547 0)"/>
      <use xlink:href="#DejaVuSans-6e" transform="translate(592.333984 0)"/>
      <use xlink:href="#DejaVuSans-2d" transform="translate(655.712891 0)"/>
      <use xlink:href="#DejaVuSans-73" transform="translate(691.796875 0)"/>
      <use xlink:href="#DejaVuSans-6f" transform="translate(743.896484 0)"/>
      <use xlink:href="#DejaVuSans-75" transform="translate(805.078125 0)"/>
      <use xlink:href="#DejaVuSans-72" transform="translate(868.457031 0)"/>
      <use xlink:href="#DejaVuSans-63" transform="translate(907.320312 0)"/>
      <use xlink:href="#DejaVuSans-65" transform="translate(962.300781 0)"/>
      <use xlink:href="#DejaVuSans-29" transform="translate(1023.824219 0)"/>
     </g>
    </g>
    <g id="patch_7">
     <path d="M 663.74125 110.699531 
L 689.74125 110.699531 
L 689.74125 101.599531 
L 663.74125 101.599531 
z
" style="fill: #6fbf8f; stroke: #73c993; stroke-width: 1.5; stroke-linejoin: miter"/>
    </g>
    <g id="text_29">
     <!-- Open-source -->
     <g style="fill: #8b949e" transform="translate(700.14125 110.699531) scale(0.13 -0.13)">
      <use xlink:href="#DejaVuSans-4f"/>
      <use xlink:href="#DejaVuSans-70" transform="translate(78.710938 0)"/>
      <use xlink:href="#DejaVuSans-65" transform="translate(142.1875 0)"/>
      <use xlink:href="#DejaVuSans-6e" transform="translate(203.710938 0)"/>
      <use xlink:href="#DejaVuSans-2d" transform="translate(267.089844 0)"/>
      <use xlink:href="#DejaVuSans-73" transform="translate(303.173828 0)"/>
      <use xlink:href="#DejaVuSans-6f" transform="translate(355.273438 0)"/>
      <use xlink:href="#DejaVuSans-75" transform="translate(416.455078 0)"/>
      <use xlink:href="#DejaVuSans-72" transform="translate(479.833984 0)"/>
      <use xlink:href="#DejaVuSans-63" transform="translate(518.697266 0)"/>
      <use xlink:href="#DejaVuSans-65" transform="translate(573.677734 0)"/>
     </g>
    </g>
    <g id="patch_8">
     <path d="M 663.74125 129.781094 
L 689.74125 129.781094 
L 689.74125 120.681094 
L 663.74125 120.681094 
z
" style="fill: #7f95ad; stroke: #8fa6bf; stroke-width: 1.5; stroke-linejoin: miter"/>
    </g>
    <g id="text_30">
     <!-- Proprietary -->
     <g style="fill: #8b949e" transform="translate(700.14125 129.781094) scale(0.13 -0.13)">
      <defs>
       <path id="DejaVuSans-79" d="M 2059 -325 
Q 1816 -950 1584 -1140 
Q 1353 -1331 966 -1331 
L 506 -1331 
L 506 -850 
L 844 -850 
Q 1081 -850 1212 -737 
Q 1344 -625 1503 -206 
L 1606 56 
L 191 3500 
L 800 3500 
L 1894 763 
L 2988 3500 
L 3597 3500 
L 2059 -325 
z
" transform="scale(0.015625)"/>
      </defs>
      <use xlink:href="#DejaVuSans-50"/>
      <use xlink:href="#DejaVuSans-72" transform="translate(58.552734 0)"/>
      <use xlink:href="#DejaVuSans-6f" transform="translate(97.416016 0)"/>
      <use xlink:href="#DejaVuSans-70" transform="translate(158.597656 0)"/>
      <use xlink:href="#DejaVuSans-72" transform="translate(222.074219 0)"/>
      <use xlink:href="#DejaVuSans-69" transform="translate(263.1875 0)"/>
      <use xlink:href="#DejaVuSans-65" transform="translate(290.970703 0)"/>
      <use xlink:href="#DejaVuSans-74" transform="translate(352.494141 0)"/>
      <use xlink:href="#DejaVuSans-61" transform="translate(391.703125 0)"/>
      <use xlink:href="#DejaVuSans-72" transform="translate(452.982422 0)"/>
      <use xlink:href="#DejaVuSans-79" transform="translate(494.095703 0)"/>
     </g>
    </g>
   </g>
   <g id="PathCollection_1">
    <defs>
     <path id="m437ea36e9f" d="M 0 5.477226 
C 1.452577 5.477226 2.845856 4.900111 3.872983 3.872983 
C 4.900111 2.845856 5.477226 1.452577 5.477226 0 
C 5.477226 -1.452577 4.900111 -2.845856 3.872983 -3.872983 
C 2.845856 -4.900111 1.452577 -5.477226 0 -5.477226 
C -1.452577 -5.477226 -2.845856 -4.900111 -3.872983 -3.872983 
C -4.900111 -2.845856 -5.477226 -1.452577 -5.477226 0 
C -5.477226 1.452577 -4.900111 2.845856 -3.872983 3.872983 
C -2.845856 4.900111 -1.452577 5.477226 0 5.477226 
z
" style="stroke: #8fa6bf; stroke-width: 1.4"/>
    </defs>
    <g clip-path="url(#pc67867bef2)">
     <use xlink:href="#m437ea36e9f" x="92.297897" y="142.597378" style="fill: #a8bed6; stroke: #8fa6bf; stroke-width: 1.4"/>
    </g>
   </g>
   <g id="PathCollection_2">
    <g clip-path="url(#pc67867bef2)">
     <use xlink:href="#m437ea36e9f" x="167.319393" y="218.218598" style="fill: #a8bed6; stroke: #8fa6bf; stroke-width: 1.4"/>
    </g>
   </g>
   <g id="PathCollection_3">
    <defs>
     <path id="m04724a00bd" d="M 0 5.477226 
C 1.452577 5.477226 2.845856 4.900111 3.872983 3.872983 
C 4.900111 2.845856 5.477226 1.452577 5.477226 0 
C 5.477226 -1.452577 4.900111 -2.845856 3.872983 -3.872983 
C 2.845856 -4.900111 1.452577 -5.477226 0 -5.477226 
C -1.452577 -5.477226 -2.845856 -4.900111 -3.872983 -3.872983 
C -4.900111 -2.845856 -5.477226 -1.452577 -5.477226 0 
C -5.477226 1.452577 -4.900111 2.845856 -3.872983 3.872983 
C -2.845856 4.900111 -1.452577 5.477226 0 5.477226 
z
" style="stroke: #d97745; stroke-width: 1.4"/>
    </defs>
    <g clip-path="url(#pc67867bef2)">
     <use xlink:href="#m04724a00bd" x="242.340888" y="245.723554" style="fill: #f28c45; stroke: #d97745; stroke-width: 1.4"/>
    </g>
   </g>
   <g id="PathCollection_4">
    <g clip-path="url(#pc67867bef2)">
     <use xlink:href="#m437ea36e9f" x="317.362383" y="257.004068" style="fill: #a8bed6; stroke: #8fa6bf; stroke-width: 1.4"/>
    </g>
   </g>
   <g id="PathCollection_5">
    <g clip-path="url(#pc67867bef2)">
     <use xlink:href="#m04724a00bd" x="392.383879" y="264.52441" style="fill: #f28c45; stroke: #d97745; stroke-width: 1.4"/>
    </g>
   </g>
   <g id="PathCollection_6">
    <g clip-path="url(#pc67867bef2)">
     <use xlink:href="#m437ea36e9f" x="467.405374" y="287.572867" style="fill: #a8bed6; stroke: #8fa6bf; stroke-width: 1.4"/>
    </g>
   </g>
   <g id="PathCollection_7">
    <defs>
     <path id="m92ba7edb3a" d="M 0 5.477226 
C 1.452577 5.477226 2.845856 4.900111 3.872983 3.872983 
C 4.900111 2.845856 5.477226 1.452577 5.477226 0 
C 5.477226 -1.452577 4.900111 -2.845856 3.872983 -3.872983 
C 2.845856 -4.900111 1.452577 -5.477226 0 -5.477226 
C -1.452577 -5.477226 -2.845856 -4.900111 -3.872983 -3.872983 
C -4.900111 -2.845856 -5.477226 -1.452577 -5.477226 0 
C -5.477226 1.452577 -4.900111 2.845856 -3.872983 3.872983 
C -2.845856 4.900111 -1.452577 5.477226 0 5.477226 
z
" style="stroke: #73c993; stroke-width: 1.4"/>
    </defs>
    <g clip-path="url(#pc67867bef2)">
     <use xlink:href="#m92ba7edb3a" x="542.426869" y="306.512989" style="fill: #90ddb0; stroke: #73c993; stroke-width: 1.4"/>
    </g>
   </g>
   <g id="PathCollection_8">
    <g clip-path="url(#pc67867bef2)">
     <use xlink:href="#m437ea36e9f" x="617.448364" y="316.400846" style="fill: #a8bed6; stroke: #8fa6bf; stroke-width: 1.4"/>
    </g>
   </g>
   <g id="PathCollection_9">
    <g clip-path="url(#pc67867bef2)">
     <use xlink:href="#m92ba7edb3a" x="692.46986" y="371.062594" style="fill: #90ddb0; stroke: #73c993; stroke-width: 1.4"/>
    </g>
   </g>
   <g id="PathCollection_10">
    <g clip-path="url(#pc67867bef2)">
     <use xlink:href="#m437ea36e9f" x="767.491355" y="379.836327" style="fill: #a8bed6; stroke: #8fa6bf; stroke-width: 1.4"/>
    </g>
   </g>
  </g>
  <g id="text_31">
   <!-- Boogu Arena -->
   <g style="fill: #c4612e" transform="translate(14.095 25.24875) scale(0.24 -0.24)">
    <use xlink:href="#DejaVuSans-Bold-42"/>
    <use xlink:href="#DejaVuSans-Bold-6f" transform="translate(76.220703 0)"/>
    <use xlink:href="#DejaVuSans-Bold-6f" transform="translate(144.921875 0)"/>
    <use xlink:href="#DejaVuSans-Bold-67" transform="translate(213.623047 0)"/>
    <use xlink:href="#DejaVuSans-Bold-75" transform="translate(285.205078 0)"/>
    <use xlink:href="#DejaVuSans-Bold-20" transform="translate(356.396484 0)"/>
    <use xlink:href="#DejaVuSans-Bold-41" transform="translate(391.210938 0)"/>
    <use xlink:href="#DejaVuSans-Bold-72" transform="translate(468.603516 0)"/>
    <use xlink:href="#DejaVuSans-Bold-65" transform="translate(517.919922 0)"/>
    <use xlink:href="#DejaVuSans-Bold-6e" transform="translate(585.742188 0)"/>
    <use xlink:href="#DejaVuSans-Bold-61" transform="translate(656.933594 0)"/>
   </g>
  </g>
 </g>
 <defs>
  <clipPath id="pc67867bef2">
   <rect x="47.285" y="70.04" width="802.73" height="348.164"/>
  </clipPath>
 </defs>
</svg>
