<?xml version="1.0" encoding="utf-8" standalone="no"?>
<!DOCTYPE svg PUBLIC "-//W3C//DTD SVG 1.1//EN"
  "http://www.w3.org/Graphics/SVG/1.1/DTD/svg11.dtd">
<svg xmlns:xlink="http://www.w3.org/1999/xlink" width="784.541562pt" height="533.691563pt" viewBox="0 0 784.541562 533.691563" xmlns="http://www.w3.org/2000/svg" version="1.1">
 <metadata>
  <rdf:RDF xmlns:dc="http://purl.org/dc/elements/1.1/" xmlns:cc="http://creativecommons.org/ns#" xmlns:rdf="http://www.w3.org/1999/02/22-rdf-syntax-ns#">
   <cc:Work>
    <dc:type rdf:resource="http://purl.org/dc/dcmitype/StillImage"/>
    <dc:date>2026-06-16T13:32:56.702789</dc:date>
    <dc:format>image/svg+xml</dc:format>
    <dc:creator>
     <cc:Agent>
      <dc:title>Matplotlib v3.10.3, https://matplotlib.org/</dc:title>
     </cc:Agent>
    </dc:creator>
   </cc:Work>
  </rdf:RDF>
 </metadata>
 <defs>
  <style type="text/css">*{stroke-linejoin: round; stroke-linecap: butt}</style>
 </defs>
 <g id="figure_1">
  <g id="patch_1">
   <path d="M -0 533.691563 
L 784.541562 533.691563 
L 784.541562 0 
L -0 0 
L -0 533.691563 
z
" style="fill: none; opacity: 0"/>
  </g>
  <g id="axes_1">
   <g id="patch_2">
    <path d="M 67.321562 328.437813 
L 777.341562 328.437813 
L 777.341562 33.837813 
L 67.321562 33.837813 
L 67.321562 328.437813 
z
" style="fill: none"/>
   </g>
   <g id="matplotlib.axis_1">
    <g id="xtick_1">
     <g id="line2d_1"/>
     <g id="text_1">
      <!-- GPT-Image-2 -->
      <g transform="translate(103.824518 331.937813) rotate(-270) scale(0.12 -0.12)">
       <defs>
        <path id="DejaVuSans-47" d="M 3809 666 
L 3809 1919 
L 2778 1919 
L 2778 2438 
L 4434 2438 
L 4434 434 
Q 4069 175 3628 42 
Q 3188 -91 2688 -91 
Q 1594 -91 976 548 
Q 359 1188 359 2328 
Q 359 3472 976 4111 
Q 1594 4750 2688 4750 
Q 3144 4750 3555 4637 
Q 3966 4525 4313 4306 
L 4313 3634 
Q 3963 3931 3569 4081 
Q 3175 4231 2741 4231 
Q 1884 4231 1454 3753 
Q 1025 3275 1025 2328 
Q 1025 1384 1454 906 
Q 1884 428 2741 428 
Q 3075 428 3337 486 
Q 3600 544 3809 666 
z
" transform="scale(0.015625)"/>
        <path id="DejaVuSans-50" d="M 1259 4147 
L 1259 2394 
L 2053 2394 
Q 2494 2394 2734 2622 
Q 2975 2850 2975 3272 
Q 2975 3691 2734 3919 
Q 2494 4147 2053 4147 
L 1259 4147 
z
M 628 4666 
L 2053 4666 
Q 2838 4666 3239 4311 
Q 3641 3956 3641 3272 
Q 3641 2581 3239 2228 
Q 2838 1875 2053 1875 
L 1259 1875 
L 1259 0 
L 628 0 
L 628 4666 
z
" transform="scale(0.015625)"/>
        <path id="DejaVuSans-54" d="M -19 4666 
L 3928 4666 
L 3928 4134 
L 2272 4134 
L 2272 0 
L 1638 0 
L 1638 4134 
L -19 4134 
L -19 4666 
z
" transform="scale(0.015625)"/>
        <path id="DejaVuSans-2d" d="M 313 2009 
L 1997 2009 
L 1997 1497 
L 313 1497 
L 313 2009 
z
" transform="scale(0.015625)"/>
        <path id="DejaVuSans-49" d="M 628 4666 
L 1259 4666 
L 1259 0 
L 628 0 
L 628 4666 
z
" transform="scale(0.015625)"/>
        <path id="DejaVuSans-6d" d="M 3328 2828 
Q 3544 3216 3844 3400 
Q 4144 3584 4550 3584 
Q 5097 3584 5394 3201 
Q 5691 2819 5691 2113 
L 5691 0 
L 5113 0 
L 5113 2094 
Q 5113 2597 4934 2840 
Q 4756 3084 4391 3084 
Q 3944 3084 3684 2787 
Q 3425 2491 3425 1978 
L 3425 0 
L 2847 0 
L 2847 2094 
Q 2847 2600 2669 2842 
Q 2491 3084 2119 3084 
Q 1678 3084 1418 2786 
Q 1159 2488 1159 1978 
L 1159 0 
L 581 0 
L 581 3500 
L 1159 3500 
L 1159 2956 
Q 1356 3278 1631 3431 
Q 1906 3584 2284 3584 
Q 2666 3584 2933 3390 
Q 3200 3197 3328 2828 
z
" transform="scale(0.015625)"/>
        <path id="DejaVuSans-61" d="M 2194 1759 
Q 1497 1759 1228 1600 
Q 959 1441 959 1056 
Q 959 750 1161 570 
Q 1363 391 1709 391 
Q 2188 391 2477 730 
Q 2766 1069 2766 1631 
L 2766 1759 
L 2194 1759 
z
M 3341 1997 
L 3341 0 
L 2766 0 
L 2766 531 
Q 2569 213 2275 61 
Q 1981 -91 1556 -91 
Q 1019 -91 701 211 
Q 384 513 384 1019 
Q 384 1609 779 1909 
Q 1175 2209 1959 2209 
L 2766 2209 
L 2766 2266 
Q 2766 2663 2505 2880 
Q 2244 3097 1772 3097 
Q 1472 3097 1187 3025 
Q 903 2953 641 2809 
L 641 3341 
Q 956 3463 1253 3523 
Q 1550 3584 1831 3584 
Q 2591 3584 2966 3190 
Q 3341 2797 3341 1997 
z
" transform="scale(0.015625)"/>
        <path id="DejaVuSans-67" d="M 2906 1791 
Q 2906 2416 2648 2759 
Q 2391 3103 1925 3103 
Q 1463 3103 1205 2759 
Q 947 2416 947 1791 
Q 947 1169 1205 825 
Q 1463 481 1925 481 
Q 2391 481 2648 825 
Q 2906 1169 2906 1791 
z
M 3481 434 
Q 3481 -459 3084 -895 
Q 2688 -1331 1869 -1331 
Q 1566 -1331 1297 -1286 
Q 1028 -1241 775 -1147 
L 775 -588 
Q 1028 -725 1275 -790 
Q 1522 -856 1778 -856 
Q 2344 -856 2625 -561 
Q 2906 -266 2906 331 
L 2906 616 
Q 2728 306 2450 153 
Q 2172 0 1784 0 
Q 1141 0 747 490 
Q 353 981 353 1791 
Q 353 2603 747 3093 
Q 1141 3584 1784 3584 
Q 2172 3584 2450 3431 
Q 2728 3278 2906 2969 
L 2906 3500 
L 3481 3500 
L 3481 434 
z
" transform="scale(0.015625)"/>
        <path id="DejaVuSans-65" d="M 3597 1894 
L 3597 1613 
L 953 1613 
Q 991 1019 1311 708 
Q 1631 397 2203 397 
Q 2534 397 2845 478 
Q 3156 559 3463 722 
L 3463 178 
Q 3153 47 2828 -22 
Q 2503 -91 2169 -91 
Q 1331 -91 842 396 
Q 353 884 353 1716 
Q 353 2575 817 3079 
Q 1281 3584 2069 3584 
Q 2775 3584 3186 3129 
Q 3597 2675 3597 1894 
z
M 3022 2063 
Q 3016 2534 2758 2815 
Q 2500 3097 2075 3097 
Q 1594 3097 1305 2825 
Q 1016 2553 972 2059 
L 3022 2063 
z
" transform="scale(0.015625)"/>
        <path id="DejaVuSans-32" d="M 1228 531 
L 3431 531 
L 3431 0 
L 469 0 
L 469 531 
Q 828 903 1448 1529 
Q 2069 2156 2228 2338 
Q 2531 2678 2651 2914 
Q 2772 3150 2772 3378 
Q 2772 3750 2511 3984 
Q 2250 4219 1831 4219 
Q 1534 4219 1204 4116 
Q 875 4013 500 3803 
L 500 4441 
Q 881 4594 1212 4672 
Q 1544 4750 1819 4750 
Q 2544 4750 2975 4387 
Q 3406 4025 3406 3419 
Q 3406 3131 3298 2873 
Q 3191 2616 2906 2266 
Q 2828 2175 2409 1742 
Q 1991 1309 1228 531 
z
" transform="scale(0.015625)"/>
       </defs>
       <use xlink:href="#DejaVuSans-47"/>
       <use xlink:href="#DejaVuSans-50" transform="translate(77.490234 0)"/>
       <use xlink:href="#DejaVuSans-54" transform="translate(137.792969 0)"/>
       <use xlink:href="#DejaVuSans-2d" transform="translate(189.751953 0)"/>
       <use xlink:href="#DejaVuSans-49" transform="translate(225.835938 0)"/>
       <use xlink:href="#DejaVuSans-6d" transform="translate(255.328125 0)"/>
       <use xlink:href="#DejaVuSans-61" transform="translate(352.740234 0)"/>
       <use xlink:href="#DejaVuSans-67" transform="translate(414.019531 0)"/>
       <use xlink:href="#DejaVuSans-65" transform="translate(477.496094 0)"/>
       <use xlink:href="#DejaVuSans-2d" transform="translate(539.019531 0)"/>
       <use xlink:href="#DejaVuSans-32" transform="translate(575.103516 0)"/>
      </g>
     </g>
    </g>
    <g id="xtick_2">
     <g id="line2d_2"/>
     <g id="text_2">
      <!-- Nano-Banana-Pro -->
      <g transform="translate(170.181527 331.937813) rotate(-270) scale(0.12 -0.12)">
       <defs>
        <path id="DejaVuSans-4e" d="M 628 4666 
L 1478 4666 
L 3547 763 
L 3547 4666 
L 4159 4666 
L 4159 0 
L 3309 0 
L 1241 3903 
L 1241 0 
L 628 0 
L 628 4666 
z
" transform="scale(0.015625)"/>
        <path id="DejaVuSans-6e" d="M 3513 2113 
L 3513 0 
L 2938 0 
L 2938 2094 
Q 2938 2591 2744 2837 
Q 2550 3084 2163 3084 
Q 1697 3084 1428 2787 
Q 1159 2491 1159 1978 
L 1159 0 
L 581 0 
L 581 3500 
L 1159 3500 
L 1159 2956 
Q 1366 3272 1645 3428 
Q 1925 3584 2291 3584 
Q 2894 3584 3203 3211 
Q 3513 2838 3513 2113 
z
" transform="scale(0.015625)"/>
        <path id="DejaVuSans-6f" d="M 1959 3097 
Q 1497 3097 1228 2736 
Q 959 2375 959 1747 
Q 959 1119 1226 758 
Q 1494 397 1959 397 
Q 2419 397 2687 759 
Q 2956 1122 2956 1747 
Q 2956 2369 2687 2733 
Q 2419 3097 1959 3097 
z
M 1959 3584 
Q 2709 3584 3137 3096 
Q 3566 2609 3566 1747 
Q 3566 888 3137 398 
Q 2709 -91 1959 -91 
Q 1206 -91 779 398 
Q 353 888 353 1747 
Q 353 2609 779 3096 
Q 1206 3584 1959 3584 
z
" transform="scale(0.015625)"/>
        <path id="DejaVuSans-42" d="M 1259 2228 
L 1259 519 
L 2272 519 
Q 2781 519 3026 730 
Q 3272 941 3272 1375 
Q 3272 1813 3026 2020 
Q 2781 2228 2272 2228 
L 1259 2228 
z
M 1259 4147 
L 1259 2741 
L 2194 2741 
Q 2656 2741 2882 2914 
Q 3109 3088 3109 3444 
Q 3109 3797 2882 3972 
Q 2656 4147 2194 4147 
L 1259 4147 
z
M 628 4666 
L 2241 4666 
Q 2963 4666 3353 4366 
Q 3744 4066 3744 3513 
Q 3744 3084 3544 2831 
Q 3344 2578 2956 2516 
Q 3422 2416 3680 2098 
Q 3938 1781 3938 1306 
Q 3938 681 3513 340 
Q 3088 0 2303 0 
L 628 0 
L 628 4666 
z
" transform="scale(0.015625)"/>
        <path id="DejaVuSans-72" d="M 2631 2963 
Q 2534 3019 2420 3045 
Q 2306 3072 2169 3072 
Q 1681 3072 1420 2755 
Q 1159 2438 1159 1844 
L 1159 0 
L 581 0 
L 581 3500 
L 1159 3500 
L 1159 2956 
Q 1341 3275 1631 3429 
Q 1922 3584 2338 3584 
Q 2397 3584 2469 3576 
Q 2541 3569 2628 3553 
L 2631 2963 
z
" transform="scale(0.015625)"/>
       </defs>
       <use xlink:href="#DejaVuSans-4e"/>
       <use xlink:href="#DejaVuSans-61" transform="translate(74.804688 0)"/>
       <use xlink:href="#DejaVuSans-6e" transform="translate(136.083984 0)"/>
       <use xlink:href="#DejaVuSans-6f" transform="translate(199.462891 0)"/>
       <use xlink:href="#DejaVuSans-2d" transform="translate(262.519531 0)"/>
       <use xlink:href="#DejaVuSans-42" transform="translate(294.978516 0)"/>
       <use xlink:href="#DejaVuSans-61" transform="translate(363.582031 0)"/>
       <use xlink:href="#DejaVuSans-6e" transform="translate(424.861328 0)"/>
       <use xlink:href="#DejaVuSans-61" transform="translate(488.240234 0)"/>
       <use xlink:href="#DejaVuSans-6e" transform="translate(549.519531 0)"/>
       <use xlink:href="#DejaVuSans-61" transform="translate(612.898438 0)"/>
       <use xlink:href="#DejaVuSans-2d" transform="translate(674.177734 0)"/>
       <use xlink:href="#DejaVuSans-50" transform="translate(710.261719 0)"/>
       <use xlink:href="#DejaVuSans-72" transform="translate(768.814453 0)"/>
       <use xlink:href="#DejaVuSans-6f" transform="translate(807.677734 0)"/>
      </g>
     </g>
    </g>
    <g id="xtick_3">
     <g id="line2d_3"/>
     <g id="text_3">
      <!-- Boogu-Image-0.1-Turbo-Thinking -->
      <g transform="translate(236.538537 331.937813) rotate(-270) scale(0.12 -0.12)">
       <defs>
        <path id="DejaVuSans-75" d="M 544 1381 
L 544 3500 
L 1119 3500 
L 1119 1403 
Q 1119 906 1312 657 
Q 1506 409 1894 409 
Q 2359 409 2629 706 
Q 2900 1003 2900 1516 
L 2900 3500 
L 3475 3500 
L 3475 0 
L 2900 0 
L 2900 538 
Q 2691 219 2414 64 
Q 2138 -91 1772 -91 
Q 1169 -91 856 284 
Q 544 659 544 1381 
z
M 1991 3584 
L 1991 3584 
z
" transform="scale(0.015625)"/>
        <path id="DejaVuSans-30" d="M 2034 4250 
Q 1547 4250 1301 3770 
Q 1056 3291 1056 2328 
Q 1056 1369 1301 889 
Q 1547 409 2034 409 
Q 2525 409 2770 889 
Q 3016 1369 3016 2328 
Q 3016 3291 2770 3770 
Q 2525 4250 2034 4250 
z
M 2034 4750 
Q 2819 4750 3233 4129 
Q 3647 3509 3647 2328 
Q 3647 1150 3233 529 
Q 2819 -91 2034 -91 
Q 1250 -91 836 529 
Q 422 1150 422 2328 
Q 422 3509 836 4129 
Q 1250 4750 2034 4750 
z
" transform="scale(0.015625)"/>
        <path id="DejaVuSans-2e" d="M 684 794 
L 1344 794 
L 1344 0 
L 684 0 
L 684 794 
z
" transform="scale(0.015625)"/>
        <path id="DejaVuSans-31" d="M 794 531 
L 1825 531 
L 1825 4091 
L 703 3866 
L 703 4441 
L 1819 4666 
L 2450 4666 
L 2450 531 
L 3481 531 
L 3481 0 
L 794 0 
L 794 531 
z
" transform="scale(0.015625)"/>
        <path id="DejaVuSans-62" d="M 3116 1747 
Q 3116 2381 2855 2742 
Q 2594 3103 2138 3103 
Q 1681 3103 1420 2742 
Q 1159 2381 1159 1747 
Q 1159 1113 1420 752 
Q 1681 391 2138 391 
Q 2594 391 2855 752 
Q 3116 1113 3116 1747 
z
M 1159 2969 
Q 1341 3281 1617 3432 
Q 1894 3584 2278 3584 
Q 2916 3584 3314 3078 
Q 3713 2572 3713 1747 
Q 3713 922 3314 415 
Q 2916 -91 2278 -91 
Q 1894 -91 1617 61 
Q 1341 213 1159 525 
L 1159 0 
L 581 0 
L 581 4863 
L 1159 4863 
L 1159 2969 
z
" transform="scale(0.015625)"/>
        <path id="DejaVuSans-68" d="M 3513 2113 
L 3513 0 
L 2938 0 
L 2938 2094 
Q 2938 2591 2744 2837 
Q 2550 3084 2163 3084 
Q 1697 3084 1428 2787 
Q 1159 2491 1159 1978 
L 1159 0 
L 581 0 
L 581 4863 
L 1159 4863 
L 1159 2956 
Q 1366 3272 1645 3428 
Q 1925 3584 2291 3584 
Q 2894 3584 3203 3211 
Q 3513 2838 3513 2113 
z
" transform="scale(0.015625)"/>
        <path id="DejaVuSans-69" d="M 603 3500 
L 1178 3500 
L 1178 0 
L 603 0 
L 603 3500 
z
M 603 4863 
L 1178 4863 
L 1178 4134 
L 603 4134 
L 603 4863 
z
" transform="scale(0.015625)"/>
        <path id="DejaVuSans-6b" d="M 581 4863 
L 1159 4863 
L 1159 1991 
L 2875 3500 
L 3609 3500 
L 1753 1863 
L 3688 0 
L 2938 0 
L 1159 1709 
L 1159 0 
L 581 0 
L 581 4863 
z
" transform="scale(0.015625)"/>
       </defs>
       <use xlink:href="#DejaVuSans-42"/>
       <use xlink:href="#DejaVuSans-6f" transform="translate(68.603516 0)"/>
       <use xlink:href="#DejaVuSans-6f" transform="translate(129.785156 0)"/>
       <use xlink:href="#DejaVuSans-67" transform="translate(190.966797 0)"/>
       <use xlink:href="#DejaVuSans-75" transform="translate(254.443359 0)"/>
       <use xlink:href="#DejaVuSans-2d" transform="translate(317.822266 0)"/>
       <use xlink:href="#DejaVuSans-49" transform="translate(353.90625 0)"/>
       <use xlink:href="#DejaVuSans-6d" transform="translate(383.398438 0)"/>
       <use xlink:href="#DejaVuSans-61" transform="translate(480.810547 0)"/>
       <use xlink:href="#DejaVuSans-67" transform="translate(542.089844 0)"/>
       <use xlink:href="#DejaVuSans-65" transform="translate(605.566406 0)"/>
       <use xlink:href="#DejaVuSans-2d" transform="translate(667.089844 0)"/>
       <use xlink:href="#DejaVuSans-30" transform="translate(703.173828 0)"/>
       <use xlink:href="#DejaVuSans-2e" transform="translate(766.796875 0)"/>
       <use xlink:href="#DejaVuSans-31" transform="translate(798.583984 0)"/>
       <use xlink:href="#DejaVuSans-2d" transform="translate(862.207031 0)"/>
       <use xlink:href="#DejaVuSans-54" transform="translate(889.166016 0)"/>
       <use xlink:href="#DejaVuSans-75" transform="translate(935.125 0)"/>
       <use xlink:href="#DejaVuSans-72" transform="translate(998.503906 0)"/>
       <use xlink:href="#DejaVuSans-62" transform="translate(1039.617188 0)"/>
       <use xlink:href="#DejaVuSans-6f" transform="translate(1103.09375 0)"/>
       <use xlink:href="#DejaVuSans-2d" transform="translate(1166.150391 0)"/>
       <use xlink:href="#DejaVuSans-54" transform="translate(1193.109375 0)"/>
       <use xlink:href="#DejaVuSans-68" transform="translate(1254.193359 0)"/>
       <use xlink:href="#DejaVuSans-69" transform="translate(1317.572266 0)"/>
       <use xlink:href="#DejaVuSans-6e" transform="translate(1345.355469 0)"/>
       <use xlink:href="#DejaVuSans-6b" transform="translate(1408.734375 0)"/>
       <use xlink:href="#DejaVuSans-69" transform="translate(1466.644531 0)"/>
       <use xlink:href="#DejaVuSans-6e" transform="translate(1494.427734 0)"/>
       <use xlink:href="#DejaVuSans-67" transform="translate(1557.806641 0)"/>
      </g>
     </g>
    </g>
    <g id="xtick_4">
     <g id="line2d_4"/>
     <g id="text_4">
      <!-- Seedream-5.0-Lite -->
      <g transform="translate(302.895546 331.937813) rotate(-270) scale(0.12 -0.12)">
       <defs>
        <path id="DejaVuSans-53" d="M 3425 4513 
L 3425 3897 
Q 3066 4069 2747 4153 
Q 2428 4238 2131 4238 
Q 1616 4238 1336 4038 
Q 1056 3838 1056 3469 
Q 1056 3159 1242 3001 
Q 1428 2844 1947 2747 
L 2328 2669 
Q 3034 2534 3370 2195 
Q 3706 1856 3706 1288 
Q 3706 609 3251 259 
Q 2797 -91 1919 -91 
Q 1588 -91 1214 -16 
Q 841 59 441 206 
L 441 856 
Q 825 641 1194 531 
Q 1563 422 1919 422 
Q 2459 422 2753 634 
Q 3047 847 3047 1241 
Q 3047 1584 2836 1778 
Q 2625 1972 2144 2069 
L 1759 2144 
Q 1053 2284 737 2584 
Q 422 2884 422 3419 
Q 422 4038 858 4394 
Q 1294 4750 2059 4750 
Q 2388 4750 2728 4690 
Q 3069 4631 3425 4513 
z
" transform="scale(0.015625)"/>
        <path id="DejaVuSans-64" d="M 2906 2969 
L 2906 4863 
L 3481 4863 
L 3481 0 
L 2906 0 
L 2906 525 
Q 2725 213 2448 61 
Q 2172 -91 1784 -91 
Q 1150 -91 751 415 
Q 353 922 353 1747 
Q 353 2572 751 3078 
Q 1150 3584 1784 3584 
Q 2172 3584 2448 3432 
Q 2725 3281 2906 2969 
z
M 947 1747 
Q 947 1113 1208 752 
Q 1469 391 1925 391 
Q 2381 391 2643 752 
Q 2906 1113 2906 1747 
Q 2906 2381 2643 2742 
Q 2381 3103 1925 3103 
Q 1469 3103 1208 2742 
Q 947 2381 947 1747 
z
" transform="scale(0.015625)"/>
        <path id="DejaVuSans-35" d="M 691 4666 
L 3169 4666 
L 3169 4134 
L 1269 4134 
L 1269 2991 
Q 1406 3038 1543 3061 
Q 1681 3084 1819 3084 
Q 2600 3084 3056 2656 
Q 3513 2228 3513 1497 
Q 3513 744 3044 326 
Q 2575 -91 1722 -91 
Q 1428 -91 1123 -41 
Q 819 9 494 109 
L 494 744 
Q 775 591 1075 516 
Q 1375 441 1709 441 
Q 2250 441 2565 725 
Q 2881 1009 2881 1497 
Q 2881 1984 2565 2268 
Q 2250 2553 1709 2553 
Q 1456 2553 1204 2497 
Q 953 2441 691 2322 
L 691 4666 
z
" transform="scale(0.015625)"/>
        <path id="DejaVuSans-4c" d="M 628 4666 
L 1259 4666 
L 1259 531 
L 3531 531 
L 3531 0 
L 628 0 
L 628 4666 
z
" transform="scale(0.015625)"/>
        <path id="DejaVuSans-74" d="M 1172 4494 
L 1172 3500 
L 2356 3500 
L 2356 3053 
L 1172 3053 
L 1172 1153 
Q 1172 725 1289 603 
Q 1406 481 1766 481 
L 2356 481 
L 2356 0 
L 1766 0 
Q 1100 0 847 248 
Q 594 497 594 1153 
L 594 3053 
L 172 3053 
L 172 3500 
L 594 3500 
L 594 4494 
L 1172 4494 
z
" transform="scale(0.015625)"/>
       </defs>
       <use xlink:href="#DejaVuSans-53"/>
       <use xlink:href="#DejaVuSans-65" transform="translate(63.476562 0)"/>
       <use xlink:href="#DejaVuSans-65" transform="translate(125 0)"/>
       <use xlink:href="#DejaVuSans-64" transform="translate(186.523438 0)"/>
       <use xlink:href="#DejaVuSans-72" transform="translate(250 0)"/>
       <use xlink:href="#DejaVuSans-65" transform="translate(288.863281 0)"/>
       <use xlink:href="#DejaVuSans-61" transform="translate(350.386719 0)"/>
       <use xlink:href="#DejaVuSans-6d" transform="translate(411.666016 0)"/>
       <use xlink:href="#DejaVuSans-2d" transform="translate(509.078125 0)"/>
       <use xlink:href="#DejaVuSans-35" transform="translate(545.162109 0)"/>
       <use xlink:href="#DejaVuSans-2e" transform="translate(608.785156 0)"/>
       <use xlink:href="#DejaVuSans-30" transform="translate(640.572266 0)"/>
       <use xlink:href="#DejaVuSans-2d" transform="translate(704.195312 0)"/>
       <use xlink:href="#DejaVuSans-4c" transform="translate(740.279297 0)"/>
       <use xlink:href="#DejaVuSans-69" transform="translate(795.992188 0)"/>
       <use xlink:href="#DejaVuSans-74" transform="translate(823.775391 0)"/>
       <use xlink:href="#DejaVuSans-65" transform="translate(862.984375 0)"/>
      </g>
     </g>
    </g>
    <g id="xtick_5">
     <g id="line2d_5"/>
     <g id="text_5">
      <!-- Boogu-Image-0.1-Turbo -->
      <g transform="translate(369.252555 331.937813) rotate(-270) scale(0.12 -0.12)">
       <use xlink:href="#DejaVuSans-42"/>
       <use xlink:href="#DejaVuSans-6f" transform="translate(68.603516 0)"/>
       <use xlink:href="#DejaVuSans-6f" transform="translate(129.785156 0)"/>
       <use xlink:href="#DejaVuSans-67" transform="translate(190.966797 0)"/>
       <use xlink:href="#DejaVuSans-75" transform="translate(254.443359 0)"/>
       <use xlink:href="#DejaVuSans-2d" transform="translate(317.822266 0)"/>
       <use xlink:href="#DejaVuSans-49" transform="translate(353.90625 0)"/>
       <use xlink:href="#DejaVuSans-6d" transform="translate(383.398438 0)"/>
       <use xlink:href="#DejaVuSans-61" transform="translate(480.810547 0)"/>
       <use xlink:href="#DejaVuSans-67" transform="translate(542.089844 0)"/>
       <use xlink:href="#DejaVuSans-65" transform="translate(605.566406 0)"/>
       <use xlink:href="#DejaVuSans-2d" transform="translate(667.089844 0)"/>
       <use xlink:href="#DejaVuSans-30" transform="translate(703.173828 0)"/>
       <use xlink:href="#DejaVuSans-2e" transform="translate(766.796875 0)"/>
       <use xlink:href="#DejaVuSans-31" transform="translate(798.583984 0)"/>
       <use xlink:href="#DejaVuSans-2d" transform="translate(862.207031 0)"/>
       <use xlink:href="#DejaVuSans-54" transform="translate(889.166016 0)"/>
       <use xlink:href="#DejaVuSans-75" transform="translate(935.125 0)"/>
       <use xlink:href="#DejaVuSans-72" transform="translate(998.503906 0)"/>
       <use xlink:href="#DejaVuSans-62" transform="translate(1039.617188 0)"/>
       <use xlink:href="#DejaVuSans-6f" transform="translate(1103.09375 0)"/>
      </g>
     </g>
    </g>
    <g id="xtick_6">
     <g id="line2d_6"/>
     <g id="text_6">
      <!-- Qwen-Image-2512 -->
      <g transform="translate(435.609565 331.937813) rotate(-270) scale(0.12 -0.12)">
       <defs>
        <path id="DejaVuSans-51" d="M 2522 4238 
Q 1834 4238 1429 3725 
Q 1025 3213 1025 2328 
Q 1025 1447 1429 934 
Q 1834 422 2522 422 
Q 3209 422 3611 934 
Q 4013 1447 4013 2328 
Q 4013 3213 3611 3725 
Q 3209 4238 2522 4238 
z
M 3406 84 
L 4238 -825 
L 3475 -825 
L 2784 -78 
Q 2681 -84 2626 -87 
Q 2572 -91 2522 -91 
Q 1538 -91 948 567 
Q 359 1225 359 2328 
Q 359 3434 948 4092 
Q 1538 4750 2522 4750 
Q 3503 4750 4090 4092 
Q 4678 3434 4678 2328 
Q 4678 1516 4351 937 
Q 4025 359 3406 84 
z
" transform="scale(0.015625)"/>
        <path id="DejaVuSans-77" d="M 269 3500 
L 844 3500 
L 1563 769 
L 2278 3500 
L 2956 3500 
L 3675 769 
L 4391 3500 
L 4966 3500 
L 4050 0 
L 3372 0 
L 2619 2869 
L 1863 0 
L 1184 0 
L 269 3500 
z
" transform="scale(0.015625)"/>
       </defs>
       <use xlink:href="#DejaVuSans-51"/>
       <use xlink:href="#DejaVuSans-77" transform="translate(78.710938 0)"/>
       <use xlink:href="#DejaVuSans-65" transform="translate(160.498047 0)"/>
       <use xlink:href="#DejaVuSans-6e" transform="translate(222.021484 0)"/>
       <use xlink:href="#DejaVuSans-2d" transform="translate(285.400391 0)"/>
       <use xlink:href="#DejaVuSans-49" transform="translate(321.484375 0)"/>
       <use xlink:href="#DejaVuSans-6d" transform="translate(350.976562 0)"/>
       <use xlink:href="#DejaVuSans-61" transform="translate(448.388672 0)"/>
       <use xlink:href="#DejaVuSans-67" transform="translate(509.667969 0)"/>
       <use xlink:href="#DejaVuSans-65" transform="translate(573.144531 0)"/>
       <use xlink:href="#DejaVuSans-2d" transform="translate(634.667969 0)"/>
       <use xlink:href="#DejaVuSans-32" transform="translate(670.751953 0)"/>
       <use xlink:href="#DejaVuSans-35" transform="translate(734.375 0)"/>
       <use xlink:href="#DejaVuSans-31" transform="translate(797.998047 0)"/>
       <use xlink:href="#DejaVuSans-32" transform="translate(861.621094 0)"/>
      </g>
     </g>
    </g>
    <g id="xtick_7">
     <g id="line2d_7"/>
     <g id="text_7">
      <!-- Z-Image-Turbo -->
      <g transform="translate(501.966574 331.937813) rotate(-270) scale(0.12 -0.12)">
       <defs>
        <path id="DejaVuSans-5a" d="M 359 4666 
L 4025 4666 
L 4025 4184 
L 1075 531 
L 4097 531 
L 4097 0 
L 288 0 
L 288 481 
L 3238 4134 
L 359 4134 
L 359 4666 
z
" transform="scale(0.015625)"/>
       </defs>
       <use xlink:href="#DejaVuSans-5a"/>
       <use xlink:href="#DejaVuSans-2d" transform="translate(66.755859 0)"/>
       <use xlink:href="#DejaVuSans-49" transform="translate(102.839844 0)"/>
       <use xlink:href="#DejaVuSans-6d" transform="translate(132.332031 0)"/>
       <use xlink:href="#DejaVuSans-61" transform="translate(229.744141 0)"/>
       <use xlink:href="#DejaVuSans-67" transform="translate(291.023438 0)"/>
       <use xlink:href="#DejaVuSans-65" transform="translate(354.5 0)"/>
       <use xlink:href="#DejaVuSans-2d" transform="translate(416.023438 0)"/>
       <use xlink:href="#DejaVuSans-54" transform="translate(442.982422 0)"/>
       <use xlink:href="#DejaVuSans-75" transform="translate(488.941406 0)"/>
       <use xlink:href="#DejaVuSans-72" transform="translate(552.320312 0)"/>
       <use xlink:href="#DejaVuSans-62" transform="translate(593.433594 0)"/>
       <use xlink:href="#DejaVuSans-6f" transform="translate(656.910156 0)"/>
      </g>
     </g>
    </g>
    <g id="xtick_8">
     <g id="line2d_8"/>
     <g id="text_8">
      <!-- Qwen-Image-2.0 -->
      <g transform="translate(568.323584 331.937813) rotate(-270) scale(0.12 -0.12)">
       <use xlink:href="#DejaVuSans-51"/>
       <use xlink:href="#DejaVuSans-77" transform="translate(78.710938 0)"/>
       <use xlink:href="#DejaVuSans-65" transform="translate(160.498047 0)"/>
       <use xlink:href="#DejaVuSans-6e" transform="translate(222.021484 0)"/>
       <use xlink:href="#DejaVuSans-2d" transform="translate(285.400391 0)"/>
       <use xlink:href="#DejaVuSans-49" transform="translate(321.484375 0)"/>
       <use xlink:href="#DejaVuSans-6d" transform="translate(350.976562 0)"/>
       <use xlink:href="#DejaVuSans-61" transform="translate(448.388672 0)"/>
       <use xlink:href="#DejaVuSans-67" transform="translate(509.667969 0)"/>
       <use xlink:href="#DejaVuSans-65" transform="translate(573.144531 0)"/>
       <use xlink:href="#DejaVuSans-2d" transform="translate(634.667969 0)"/>
       <use xlink:href="#DejaVuSans-32" transform="translate(670.751953 0)"/>
       <use xlink:href="#DejaVuSans-2e" transform="translate(734.375 0)"/>
       <use xlink:href="#DejaVuSans-30" transform="translate(766.162109 0)"/>
      </g>
     </g>
    </g>
    <g id="xtick_9">
     <g id="line2d_9"/>
     <g id="text_9">
      <!-- HiDream-O1-Image -->
      <g transform="translate(634.680593 331.937813) rotate(-270) scale(0.12 -0.12)">
       <defs>
        <path id="DejaVuSans-48" d="M 628 4666 
L 1259 4666 
L 1259 2753 
L 3553 2753 
L 3553 4666 
L 4184 4666 
L 4184 0 
L 3553 0 
L 3553 2222 
L 1259 2222 
L 1259 0 
L 628 0 
L 628 4666 
z
" transform="scale(0.015625)"/>
        <path id="DejaVuSans-44" d="M 1259 4147 
L 1259 519 
L 2022 519 
Q 2988 519 3436 956 
Q 3884 1394 3884 2338 
Q 3884 3275 3436 3711 
Q 2988 4147 2022 4147 
L 1259 4147 
z
M 628 4666 
L 1925 4666 
Q 3281 4666 3915 4102 
Q 4550 3538 4550 2338 
Q 4550 1131 3912 565 
Q 3275 0 1925 0 
L 628 0 
L 628 4666 
z
" transform="scale(0.015625)"/>
        <path id="DejaVuSans-4f" d="M 2522 4238 
Q 1834 4238 1429 3725 
Q 1025 3213 1025 2328 
Q 1025 1447 1429 934 
Q 1834 422 2522 422 
Q 3209 422 3611 934 
Q 4013 1447 4013 2328 
Q 4013 3213 3611 3725 
Q 3209 4238 2522 4238 
z
M 2522 4750 
Q 3503 4750 4090 4092 
Q 4678 3434 4678 2328 
Q 4678 1225 4090 567 
Q 3503 -91 2522 -91 
Q 1538 -91 948 565 
Q 359 1222 359 2328 
Q 359 3434 948 4092 
Q 1538 4750 2522 4750 
z
" transform="scale(0.015625)"/>
       </defs>
       <use xlink:href="#DejaVuSans-48"/>
       <use xlink:href="#DejaVuSans-69" transform="translate(75.195312 0)"/>
       <use xlink:href="#DejaVuSans-44" transform="translate(102.978516 0)"/>
       <use xlink:href="#DejaVuSans-72" transform="translate(179.980469 0)"/>
       <use xlink:href="#DejaVuSans-65" transform="translate(218.84375 0)"/>
       <use xlink:href="#DejaVuSans-61" transform="translate(280.367188 0)"/>
       <use xlink:href="#DejaVuSans-6d" transform="translate(341.646484 0)"/>
       <use xlink:href="#DejaVuSans-2d" transform="translate(439.058594 0)"/>
       <use xlink:href="#DejaVuSans-4f" transform="translate(477.892578 0)"/>
       <use xlink:href="#DejaVuSans-31" transform="translate(556.603516 0)"/>
       <use xlink:href="#DejaVuSans-2d" transform="translate(620.226562 0)"/>
       <use xlink:href="#DejaVuSans-49" transform="translate(656.310547 0)"/>
       <use xlink:href="#DejaVuSans-6d" transform="translate(685.802734 0)"/>
       <use xlink:href="#DejaVuSans-61" transform="translate(783.214844 0)"/>
       <use xlink:href="#DejaVuSans-67" transform="translate(844.494141 0)"/>
       <use xlink:href="#DejaVuSans-65" transform="translate(907.970703 0)"/>
      </g>
     </g>
    </g>
    <g id="xtick_10">
     <g id="line2d_10"/>
     <g id="text_10">
      <!-- HiDream-O1-Image-1.5 -->
      <g transform="translate(701.037602 331.937813) rotate(-270) scale(0.12 -0.12)">
       <use xlink:href="#DejaVuSans-48"/>
       <use xlink:href="#DejaVuSans-69" transform="translate(75.195312 0)"/>
       <use xlink:href="#DejaVuSans-44" transform="translate(102.978516 0)"/>
       <use xlink:href="#DejaVuSans-72" transform="translate(179.980469 0)"/>
       <use xlink:href="#DejaVuSans-65" transform="translate(218.84375 0)"/>
       <use xlink:href="#DejaVuSans-61" transform="translate(280.367188 0)"/>
       <use xlink:href="#DejaVuSans-6d" transform="translate(341.646484 0)"/>
       <use xlink:href="#DejaVuSans-2d" transform="translate(439.058594 0)"/>
       <use xlink:href="#DejaVuSans-4f" transform="translate(477.892578 0)"/>
       <use xlink:href="#DejaVuSans-31" transform="translate(556.603516 0)"/>
       <use xlink:href="#DejaVuSans-2d" transform="translate(620.226562 0)"/>
       <use xlink:href="#DejaVuSans-49" transform="translate(656.310547 0)"/>
       <use xlink:href="#DejaVuSans-6d" transform="translate(685.802734 0)"/>
       <use xlink:href="#DejaVuSans-61" transform="translate(783.214844 0)"/>
       <use xlink:href="#DejaVuSans-67" transform="translate(844.494141 0)"/>
       <use xlink:href="#DejaVuSans-65" transform="translate(907.970703 0)"/>
       <use xlink:href="#DejaVuSans-2d" transform="translate(969.494141 0)"/>
       <use xlink:href="#DejaVuSans-31" transform="translate(1005.578125 0)"/>
       <use xlink:href="#DejaVuSans-2e" transform="translate(1069.201172 0)"/>
       <use xlink:href="#DejaVuSans-35" transform="translate(1100.988281 0)"/>
      </g>
     </g>
    </g>
   </g>
   <g id="matplotlib.axis_2">
    <g id="ytick_1">
     <g id="line2d_11">
      <path d="M 67.321562 273.402648 
L 777.341562 273.402648 
" clip-path="url(#pf09062d2db)" style="fill: none; stroke: #888888; stroke-opacity: 0.15; stroke-width: 0.8; stroke-linecap: square"/>
     </g>
     <g id="line2d_12">
      <defs>
       <path id="mb6fb247224" d="M 0 0 
L -3.5 0 
" style="stroke: #000000; stroke-width: 0.8"/>
      </defs>
      <g>
       <use xlink:href="#mb6fb247224" x="67.321562" y="273.402648" style="stroke: #000000; stroke-width: 0.8"/>
      </g>
     </g>
     <g id="text_11">
      <!-- 900 -->
      <g transform="translate(37.416562 277.96171) scale(0.12 -0.12)">
       <defs>
        <path id="DejaVuSans-39" d="M 703 97 
L 703 672 
Q 941 559 1184 500 
Q 1428 441 1663 441 
Q 2288 441 2617 861 
Q 2947 1281 2994 2138 
Q 2813 1869 2534 1725 
Q 2256 1581 1919 1581 
Q 1219 1581 811 2004 
Q 403 2428 403 3163 
Q 403 3881 828 4315 
Q 1253 4750 1959 4750 
Q 2769 4750 3195 4129 
Q 3622 3509 3622 2328 
Q 3622 1225 3098 567 
Q 2575 -91 1691 -91 
Q 1453 -91 1209 -44 
Q 966 3 703 97 
z
M 1959 2075 
Q 2384 2075 2632 2365 
Q 2881 2656 2881 3163 
Q 2881 3666 2632 3958 
Q 2384 4250 1959 4250 
Q 1534 4250 1286 3958 
Q 1038 3666 1038 3163 
Q 1038 2656 1286 2365 
Q 1534 2075 1959 2075 
z
" transform="scale(0.015625)"/>
       </defs>
       <use xlink:href="#DejaVuSans-39"/>
       <use xlink:href="#DejaVuSans-30" transform="translate(63.623047 0)"/>
       <use xlink:href="#DejaVuSans-30" transform="translate(127.246094 0)"/>
      </g>
     </g>
    </g>
    <g id="ytick_2">
     <g id="line2d_13">
      <path d="M 67.321562 208.655395 
L 777.341562 208.655395 
" clip-path="url(#pf09062d2db)" style="fill: none; stroke: #888888; stroke-opacity: 0.15; stroke-width: 0.8; stroke-linecap: square"/>
     </g>
     <g id="line2d_14">
      <g>
       <use xlink:href="#mb6fb247224" x="67.321562" y="208.655395" style="stroke: #000000; stroke-width: 0.8"/>
      </g>
     </g>
     <g id="text_12">
      <!-- 1000 -->
      <g transform="translate(29.781562 213.214457) scale(0.12 -0.12)">
       <use xlink:href="#DejaVuSans-31"/>
       <use xlink:href="#DejaVuSans-30" transform="translate(63.623047 0)"/>
       <use xlink:href="#DejaVuSans-30" transform="translate(127.246094 0)"/>
       <use xlink:href="#DejaVuSans-30" transform="translate(190.869141 0)"/>
      </g>
     </g>
    </g>
    <g id="ytick_3">
     <g id="line2d_15">
      <path d="M 67.321562 143.908142 
L 777.341562 143.908142 
" clip-path="url(#pf09062d2db)" style="fill: none; stroke: #888888; stroke-opacity: 0.15; stroke-width: 0.8; stroke-linecap: square"/>
     </g>
     <g id="line2d_16">
      <g>
       <use xlink:href="#mb6fb247224" x="67.321562" y="143.908142" style="stroke: #000000; stroke-width: 0.8"/>
      </g>
     </g>
     <g id="text_13">
      <!-- 1100 -->
      <g transform="translate(29.781562 148.467205) scale(0.12 -0.12)">
       <use xlink:href="#DejaVuSans-31"/>
       <use xlink:href="#DejaVuSans-31" transform="translate(63.623047 0)"/>
       <use xlink:href="#DejaVuSans-30" transform="translate(127.246094 0)"/>
       <use xlink:href="#DejaVuSans-30" transform="translate(190.869141 0)"/>
      </g>
     </g>
    </g>
    <g id="ytick_4">
     <g id="line2d_17">
      <path d="M 67.321562 79.160889 
L 777.341562 79.160889 
" clip-path="url(#pf09062d2db)" style="fill: none; stroke: #888888; stroke-opacity: 0.15; stroke-width: 0.8; stroke-linecap: square"/>
     </g>
     <g id="line2d_18">
      <g>
       <use xlink:href="#mb6fb247224" x="67.321562" y="79.160889" style="stroke: #000000; stroke-width: 0.8"/>
      </g>
     </g>
     <g id="text_14">
      <!-- 1200 -->
      <g transform="translate(29.781562 83.719952) scale(0.12 -0.12)">
       <use xlink:href="#DejaVuSans-31"/>
       <use xlink:href="#DejaVuSans-32" transform="translate(63.623047 0)"/>
       <use xlink:href="#DejaVuSans-30" transform="translate(127.246094 0)"/>
       <use xlink:href="#DejaVuSans-30" transform="translate(190.869141 0)"/>
      </g>
     </g>
    </g>
    <g id="text_15">
     <!-- Arena Score -->
     <g transform="translate(17.077969 220.481094) rotate(-90) scale(0.13 -0.13)">
      <defs>
       <path id="DejaVuSans-41" d="M 2188 4044 
L 1331 1722 
L 3047 1722 
L 2188 4044 
z
M 1831 4666 
L 2547 4666 
L 4325 0 
L 3669 0 
L 3244 1197 
L 1141 1197 
L 716 0 
L 50 0 
L 1831 4666 
z
" transform="scale(0.015625)"/>
       <path id="DejaVuSans-20" transform="scale(0.015625)"/>
       <path id="DejaVuSans-63" d="M 3122 3366 
L 3122 2828 
Q 2878 2963 2633 3030 
Q 2388 3097 2138 3097 
Q 1578 3097 1268 2742 
Q 959 2388 959 1747 
Q 959 1106 1268 751 
Q 1578 397 2138 397 
Q 2388 397 2633 464 
Q 2878 531 3122 666 
L 3122 134 
Q 2881 22 2623 -34 
Q 2366 -91 2075 -91 
Q 1284 -91 818 406 
Q 353 903 353 1747 
Q 353 2603 823 3093 
Q 1294 3584 2113 3584 
Q 2378 3584 2631 3529 
Q 2884 3475 3122 3366 
z
" transform="scale(0.015625)"/>
      </defs>
      <use xlink:href="#DejaVuSans-41"/>
      <use xlink:href="#DejaVuSans-72" transform="translate(68.408203 0)"/>
      <use xlink:href="#DejaVuSans-65" transform="translate(107.271484 0)"/>
      <use xlink:href="#DejaVuSans-6e" transform="translate(168.794922 0)"/>
      <use xlink:href="#DejaVuSans-61" transform="translate(232.173828 0)"/>
      <use xlink:href="#DejaVuSans-20" transform="translate(293.453125 0)"/>
      <use xlink:href="#DejaVuSans-53" transform="translate(325.240234 0)"/>
      <use xlink:href="#DejaVuSans-63" transform="translate(388.716797 0)"/>
      <use xlink:href="#DejaVuSans-6f" transform="translate(443.697266 0)"/>
      <use xlink:href="#DejaVuSans-72" transform="translate(504.878906 0)"/>
      <use xlink:href="#DejaVuSans-65" transform="translate(543.742188 0)"/>
     </g>
    </g>
   </g>
   <g id="FillBetweenPolyCollection_1">
    <defs>
     <path id="m32ad063ea0" d="M 88.555805 -489.623684 
L 88.555805 -424.034717 
L 125.715731 -424.034717 
L 125.715731 -489.623684 
L 125.715731 -489.623684 
L 88.555805 -489.623684 
z
" style="stroke: #9baec2; stroke-opacity: 0.25"/>
    </defs>
    <g clip-path="url(#pf09062d2db)">
     <use xlink:href="#m32ad063ea0" x="0" y="533.691563" style="fill: #9baec2; fill-opacity: 0.25; stroke: #9baec2; stroke-opacity: 0.25"/>
    </g>
   </g>
   <g id="FillBetweenPolyCollection_2">
    <defs>
     <path id="m0e01eafbdb" d="M 154.912815 -406.29397 
L 154.912815 -360.711904 
L 192.07274 -360.711904 
L 192.07274 -406.29397 
L 192.07274 -406.29397 
L 154.912815 -406.29397 
z
" style="stroke: #9baec2; stroke-opacity: 0.25"/>
    </defs>
    <g clip-path="url(#pf09062d2db)">
     <use xlink:href="#m0e01eafbdb" x="0" y="533.691563" style="fill: #9baec2; fill-opacity: 0.25; stroke: #9baec2; stroke-opacity: 0.25"/>
    </g>
   </g>
   <g id="FillBetweenPolyCollection_3">
    <defs>
     <path id="m0c0d2f2a5f" d="M 221.269824 -376.574981 
L 221.269824 -339.669047 
L 258.429749 -339.669047 
L 258.429749 -376.574981 
L 258.429749 -376.574981 
L 221.269824 -376.574981 
z
" style="stroke: #f5c08a; stroke-opacity: 0.25"/>
    </defs>
    <g clip-path="url(#pf09062d2db)">
     <use xlink:href="#m0c0d2f2a5f" x="0" y="533.691563" style="fill: #f5c08a; fill-opacity: 0.25; stroke: #f5c08a; stroke-opacity: 0.25"/>
    </g>
   </g>
   <g id="FillBetweenPolyCollection_4">
    <defs>
     <path id="m233ff33c60" d="M 287.626834 -364.078761 
L 287.626834 -328.208783 
L 324.786759 -328.208783 
L 324.786759 -364.078761 
L 324.786759 -364.078761 
L 287.626834 -364.078761 
z
" style="stroke: #9baec2; stroke-opacity: 0.25"/>
    </defs>
    <g clip-path="url(#pf09062d2db)">
     <use xlink:href="#m233ff33c60" x="0" y="533.691563" style="fill: #9baec2; fill-opacity: 0.25; stroke: #9baec2; stroke-opacity: 0.25"/>
    </g>
   </g>
   <g id="FillBetweenPolyCollection_5">
    <defs>
     <path id="ma102407ff1" d="M 353.983843 -359.87019 
L 353.983843 -319.79164 
L 391.143768 -319.79164 
L 391.143768 -359.87019 
L 391.143768 -359.87019 
L 353.983843 -359.87019 
z
" style="stroke: #f5c08a; stroke-opacity: 0.25"/>
    </defs>
    <g clip-path="url(#pf09062d2db)">
     <use xlink:href="#ma102407ff1" x="0" y="533.691563" style="fill: #f5c08a; fill-opacity: 0.25; stroke: #f5c08a; stroke-opacity: 0.25"/>
    </g>
   </g>
   <g id="FillBetweenPolyCollection_6">
    <defs>
     <path id="m2e674c7175" d="M 420.340852 -333.712299 
L 420.340852 -293.374761 
L 457.500777 -293.374761 
L 457.500777 -333.712299 
L 457.500777 -333.712299 
L 420.340852 -333.712299 
z
" style="stroke: #8bc5a3; stroke-opacity: 0.25"/>
    </defs>
    <g clip-path="url(#pf09062d2db)">
     <use xlink:href="#m2e674c7175" x="0" y="533.691563" style="fill: #8bc5a3; fill-opacity: 0.25; stroke: #8bc5a3; stroke-opacity: 0.25"/>
    </g>
   </g>
   <g id="FillBetweenPolyCollection_7">
    <defs>
     <path id="med3504fe9b" d="M 486.697862 -312.669442 
L 486.697862 -282.756212 
L 523.857787 -282.756212 
L 523.857787 -312.669442 
L 523.857787 -312.669442 
L 486.697862 -312.669442 
z
" style="stroke: #8bc5a3; stroke-opacity: 0.25"/>
    </defs>
    <g clip-path="url(#pf09062d2db)">
     <use xlink:href="#med3504fe9b" x="0" y="533.691563" style="fill: #8bc5a3; fill-opacity: 0.25; stroke: #8bc5a3; stroke-opacity: 0.25"/>
    </g>
   </g>
   <g id="FillBetweenPolyCollection_8">
    <defs>
     <path id="m032dc0802e" d="M 553.054871 -310.014805 
L 553.054871 -268.317574 
L 590.214796 -268.317574 
L 590.214796 -310.014805 
L 590.214796 -310.014805 
L 553.054871 -310.014805 
z
" style="stroke: #9baec2; stroke-opacity: 0.25"/>
    </defs>
    <g clip-path="url(#pf09062d2db)">
     <use xlink:href="#m032dc0802e" x="0" y="533.691563" style="fill: #9baec2; fill-opacity: 0.25; stroke: #9baec2; stroke-opacity: 0.25"/>
    </g>
   </g>
   <g id="FillBetweenPolyCollection_9">
    <defs>
     <path id="m44901846ca" d="M 619.41188 -255.109135 
L 619.41188 -218.656431 
L 656.571805 -218.656431 
L 656.571805 -255.109135 
L 656.571805 -255.109135 
L 619.41188 -255.109135 
z
" style="stroke: #8bc5a3; stroke-opacity: 0.25"/>
    </defs>
    <g clip-path="url(#pf09062d2db)">
     <use xlink:href="#m44901846ca" x="0" y="533.691563" style="fill: #8bc5a3; fill-opacity: 0.25; stroke: #8bc5a3; stroke-opacity: 0.25"/>
    </g>
   </g>
   <g id="FillBetweenPolyCollection_10">
    <defs>
     <path id="md0e791bdbf" d="M 685.76889 -249.411376 
L 685.76889 -215.548563 
L 722.928815 -215.548563 
L 722.928815 -249.411376 
L 722.928815 -249.411376 
L 685.76889 -249.411376 
z
" style="stroke: #9baec2; stroke-opacity: 0.25"/>
    </defs>
    <g clip-path="url(#pf09062d2db)">
     <use xlink:href="#md0e791bdbf" x="0" y="533.691563" style="fill: #9baec2; fill-opacity: 0.25; stroke: #9baec2; stroke-opacity: 0.25"/>
    </g>
   </g>
   <g id="patch_3">
    <path d="M 67.321562 328.437813 
L 67.321562 33.837813 
" style="fill: none; stroke: #cccccc; stroke-width: 0.8; stroke-linejoin: miter; stroke-linecap: square"/>
   </g>
   <g id="patch_4">
    <path d="M 67.321562 328.437813 
L 777.341562 328.437813 
" style="fill: none; stroke: #cccccc; stroke-width: 0.8; stroke-linejoin: miter; stroke-linecap: square"/>
   </g>
   <g id="line2d_19">
    <path d="M 107.135768 109.656845 
L 107.135768 44.067878 
" clip-path="url(#pf09062d2db)" style="fill: none; stroke: #6b839e; stroke-width: 2.5; stroke-linecap: round"/>
   </g>
   <g id="line2d_20">
    <path d="M 97.845787 109.656845 
L 116.425749 109.656845 
" clip-path="url(#pf09062d2db)" style="fill: none; stroke: #6b839e; stroke-width: 2; stroke-linecap: round"/>
   </g>
   <g id="line2d_21">
    <path d="M 97.845787 44.067878 
L 116.425749 44.067878 
" clip-path="url(#pf09062d2db)" style="fill: none; stroke: #6b839e; stroke-width: 2; stroke-linecap: round"/>
   </g>
   <g id="line2d_22">
    <path d="M 173.492777 172.979659 
L 173.492777 127.397593 
" clip-path="url(#pf09062d2db)" style="fill: none; stroke: #6b839e; stroke-width: 2.5; stroke-linecap: round"/>
   </g>
   <g id="line2d_23">
    <path d="M 164.202796 172.979659 
L 182.782759 172.979659 
" clip-path="url(#pf09062d2db)" style="fill: none; stroke: #6b839e; stroke-width: 2; stroke-linecap: round"/>
   </g>
   <g id="line2d_24">
    <path d="M 164.202796 127.397593 
L 182.782759 127.397593 
" clip-path="url(#pf09062d2db)" style="fill: none; stroke: #6b839e; stroke-width: 2; stroke-linecap: round"/>
   </g>
   <g id="line2d_25">
    <path d="M 239.849787 194.022516 
L 239.849787 157.116582 
" clip-path="url(#pf09062d2db)" style="fill: none; stroke: #d97745; stroke-width: 2.5; stroke-linecap: round"/>
   </g>
   <g id="line2d_26">
    <path d="M 230.559805 194.022516 
L 249.139768 194.022516 
" clip-path="url(#pf09062d2db)" style="fill: none; stroke: #d97745; stroke-width: 2; stroke-linecap: round"/>
   </g>
   <g id="line2d_27">
    <path d="M 230.559805 157.116582 
L 249.139768 157.116582 
" clip-path="url(#pf09062d2db)" style="fill: none; stroke: #d97745; stroke-width: 2; stroke-linecap: round"/>
   </g>
   <g id="line2d_28">
    <path d="M 306.206796 205.48278 
L 306.206796 169.612802 
" clip-path="url(#pf09062d2db)" style="fill: none; stroke: #6b839e; stroke-width: 2.5; stroke-linecap: round"/>
   </g>
   <g id="line2d_29">
    <path d="M 296.916815 205.48278 
L 315.496777 205.48278 
" clip-path="url(#pf09062d2db)" style="fill: none; stroke: #6b839e; stroke-width: 2; stroke-linecap: round"/>
   </g>
   <g id="line2d_30">
    <path d="M 296.916815 169.612802 
L 315.496777 169.612802 
" clip-path="url(#pf09062d2db)" style="fill: none; stroke: #6b839e; stroke-width: 2; stroke-linecap: round"/>
   </g>
   <g id="line2d_31">
    <path d="M 372.563805 213.899922 
L 372.563805 173.821373 
" clip-path="url(#pf09062d2db)" style="fill: none; stroke: #d97745; stroke-width: 2.5; stroke-linecap: round"/>
   </g>
   <g id="line2d_32">
    <path d="M 363.273824 213.899922 
L 381.853787 213.899922 
" clip-path="url(#pf09062d2db)" style="fill: none; stroke: #d97745; stroke-width: 2; stroke-linecap: round"/>
   </g>
   <g id="line2d_33">
    <path d="M 363.273824 173.821373 
L 381.853787 173.821373 
" clip-path="url(#pf09062d2db)" style="fill: none; stroke: #d97745; stroke-width: 2; stroke-linecap: round"/>
   </g>
   <g id="line2d_34">
    <path d="M 438.920815 240.316802 
L 438.920815 199.979263 
" clip-path="url(#pf09062d2db)" style="fill: none; stroke: #5a9e76; stroke-width: 2.5; stroke-linecap: round"/>
   </g>
   <g id="line2d_35">
    <path d="M 429.630834 240.316802 
L 448.210796 240.316802 
" clip-path="url(#pf09062d2db)" style="fill: none; stroke: #5a9e76; stroke-width: 2; stroke-linecap: round"/>
   </g>
   <g id="line2d_36">
    <path d="M 429.630834 199.979263 
L 448.210796 199.979263 
" clip-path="url(#pf09062d2db)" style="fill: none; stroke: #5a9e76; stroke-width: 2; stroke-linecap: round"/>
   </g>
   <g id="line2d_37">
    <path d="M 505.277824 250.935351 
L 505.277824 221.02212 
" clip-path="url(#pf09062d2db)" style="fill: none; stroke: #5a9e76; stroke-width: 2.5; stroke-linecap: round"/>
   </g>
   <g id="line2d_38">
    <path d="M 495.987843 250.935351 
L 514.567805 250.935351 
" clip-path="url(#pf09062d2db)" style="fill: none; stroke: #5a9e76; stroke-width: 2; stroke-linecap: round"/>
   </g>
   <g id="line2d_39">
    <path d="M 495.987843 221.02212 
L 514.567805 221.02212 
" clip-path="url(#pf09062d2db)" style="fill: none; stroke: #5a9e76; stroke-width: 2; stroke-linecap: round"/>
   </g>
   <g id="line2d_40">
    <path d="M 571.634834 265.373988 
L 571.634834 223.676758 
" clip-path="url(#pf09062d2db)" style="fill: none; stroke: #6b839e; stroke-width: 2.5; stroke-linecap: round"/>
   </g>
   <g id="line2d_41">
    <path d="M 562.344852 265.373988 
L 580.924815 265.373988 
" clip-path="url(#pf09062d2db)" style="fill: none; stroke: #6b839e; stroke-width: 2; stroke-linecap: round"/>
   </g>
   <g id="line2d_42">
    <path d="M 562.344852 223.676758 
L 580.924815 223.676758 
" clip-path="url(#pf09062d2db)" style="fill: none; stroke: #6b839e; stroke-width: 2; stroke-linecap: round"/>
   </g>
   <g id="line2d_43">
    <path d="M 637.991843 315.035131 
L 637.991843 278.582428 
" clip-path="url(#pf09062d2db)" style="fill: none; stroke: #5a9e76; stroke-width: 2.5; stroke-linecap: round"/>
   </g>
   <g id="line2d_44">
    <path d="M 628.701862 315.035131 
L 647.281824 315.035131 
" clip-path="url(#pf09062d2db)" style="fill: none; stroke: #5a9e76; stroke-width: 2; stroke-linecap: round"/>
   </g>
   <g id="line2d_45">
    <path d="M 628.701862 278.582428 
L 647.281824 278.582428 
" clip-path="url(#pf09062d2db)" style="fill: none; stroke: #5a9e76; stroke-width: 2; stroke-linecap: round"/>
   </g>
   <g id="line2d_46">
    <path d="M 704.348852 318.142999 
L 704.348852 284.280186 
" clip-path="url(#pf09062d2db)" style="fill: none; stroke: #6b839e; stroke-width: 2.5; stroke-linecap: round"/>
   </g>
   <g id="line2d_47">
    <path d="M 695.058871 318.142999 
L 713.638834 318.142999 
" clip-path="url(#pf09062d2db)" style="fill: none; stroke: #6b839e; stroke-width: 2; stroke-linecap: round"/>
   </g>
   <g id="line2d_48">
    <path d="M 695.058871 284.280186 
L 713.638834 284.280186 
" clip-path="url(#pf09062d2db)" style="fill: none; stroke: #6b839e; stroke-width: 2; stroke-linecap: round"/>
   </g>
   <g id="text_16">
    <!-- 1196 -->
    <g transform="translate(128.370011 84.436933) scale(0.095 -0.095)">
     <defs>
      <path id="DejaVuSans-36" d="M 2113 2584 
Q 1688 2584 1439 2293 
Q 1191 2003 1191 1497 
Q 1191 994 1439 701 
Q 1688 409 2113 409 
Q 2538 409 2786 701 
Q 3034 994 3034 1497 
Q 3034 2003 2786 2293 
Q 2538 2584 2113 2584 
z
M 3366 4563 
L 3366 3988 
Q 3128 4100 2886 4159 
Q 2644 4219 2406 4219 
Q 1781 4219 1451 3797 
Q 1122 3375 1075 2522 
Q 1259 2794 1537 2939 
Q 1816 3084 2150 3084 
Q 2853 3084 3261 2657 
Q 3669 2231 3669 1497 
Q 3669 778 3244 343 
Q 2819 -91 2113 -91 
Q 1303 -91 875 529 
Q 447 1150 447 2328 
Q 447 3434 972 4092 
Q 1497 4750 2381 4750 
Q 2619 4750 2861 4703 
Q 3103 4656 3366 4563 
z
" transform="scale(0.015625)"/>
     </defs>
     <use xlink:href="#DejaVuSans-31"/>
     <use xlink:href="#DejaVuSans-31" transform="translate(63.623047 0)"/>
     <use xlink:href="#DejaVuSans-39" transform="translate(127.246094 0)"/>
     <use xlink:href="#DejaVuSans-36" transform="translate(190.869141 0)"/>
    </g>
   </g>
   <g id="text_17">
    <!-- 1088 -->
    <g transform="translate(194.72702 154.428713) scale(0.095 -0.095)">
     <defs>
      <path id="DejaVuSans-38" d="M 2034 2216 
Q 1584 2216 1326 1975 
Q 1069 1734 1069 1313 
Q 1069 891 1326 650 
Q 1584 409 2034 409 
Q 2484 409 2743 651 
Q 3003 894 3003 1313 
Q 3003 1734 2745 1975 
Q 2488 2216 2034 2216 
z
M 1403 2484 
Q 997 2584 770 2862 
Q 544 3141 544 3541 
Q 544 4100 942 4425 
Q 1341 4750 2034 4750 
Q 2731 4750 3128 4425 
Q 3525 4100 3525 3541 
Q 3525 3141 3298 2862 
Q 3072 2584 2669 2484 
Q 3125 2378 3379 2068 
Q 3634 1759 3634 1313 
Q 3634 634 3220 271 
Q 2806 -91 2034 -91 
Q 1263 -91 848 271 
Q 434 634 434 1313 
Q 434 1759 690 2068 
Q 947 2378 1403 2484 
z
M 1172 3481 
Q 1172 3119 1398 2916 
Q 1625 2713 2034 2713 
Q 2441 2713 2670 2916 
Q 2900 3119 2900 3481 
Q 2900 3844 2670 4047 
Q 2441 4250 2034 4250 
Q 1625 4250 1398 4047 
Q 1172 3844 1172 3481 
z
" transform="scale(0.015625)"/>
     </defs>
     <use xlink:href="#DejaVuSans-31"/>
     <use xlink:href="#DejaVuSans-30" transform="translate(63.623047 0)"/>
     <use xlink:href="#DejaVuSans-38" transform="translate(127.246094 0)"/>
     <use xlink:href="#DejaVuSans-38" transform="translate(190.869141 0)"/>
    </g>
   </g>
   <g id="text_18">
    <!-- 1048 -->
    <g transform="translate(261.08403 180.262867) scale(0.095 -0.095)">
     <defs>
      <path id="DejaVuSans-34" d="M 2419 4116 
L 825 1625 
L 2419 1625 
L 2419 4116 
z
M 2253 4666 
L 3047 4666 
L 3047 1625 
L 3713 1625 
L 3713 1100 
L 3047 1100 
L 3047 0 
L 2419 0 
L 2419 1100 
L 313 1100 
L 313 1709 
L 2253 4666 
z
" transform="scale(0.015625)"/>
     </defs>
     <use xlink:href="#DejaVuSans-31"/>
     <use xlink:href="#DejaVuSans-30" transform="translate(63.623047 0)"/>
     <use xlink:href="#DejaVuSans-34" transform="translate(127.246094 0)"/>
     <use xlink:href="#DejaVuSans-38" transform="translate(190.869141 0)"/>
    </g>
   </g>
   <g id="text_19">
    <!-- 1032 -->
    <g transform="translate(327.441039 190.622428) scale(0.095 -0.095)">
     <defs>
      <path id="DejaVuSans-33" d="M 2597 2516 
Q 3050 2419 3304 2112 
Q 3559 1806 3559 1356 
Q 3559 666 3084 287 
Q 2609 -91 1734 -91 
Q 1441 -91 1130 -33 
Q 819 25 488 141 
L 488 750 
Q 750 597 1062 519 
Q 1375 441 1716 441 
Q 2309 441 2620 675 
Q 2931 909 2931 1356 
Q 2931 1769 2642 2001 
Q 2353 2234 1838 2234 
L 1294 2234 
L 1294 2753 
L 1863 2753 
Q 2328 2753 2575 2939 
Q 2822 3125 2822 3475 
Q 2822 3834 2567 4026 
Q 2313 4219 1838 4219 
Q 1578 4219 1281 4162 
Q 984 4106 628 3988 
L 628 4550 
Q 988 4650 1302 4700 
Q 1616 4750 1894 4750 
Q 2613 4750 3031 4423 
Q 3450 4097 3450 3541 
Q 3450 3153 3228 2886 
Q 3006 2619 2597 2516 
z
" transform="scale(0.015625)"/>
     </defs>
     <use xlink:href="#DejaVuSans-31"/>
     <use xlink:href="#DejaVuSans-30" transform="translate(63.623047 0)"/>
     <use xlink:href="#DejaVuSans-33" transform="translate(127.246094 0)"/>
     <use xlink:href="#DejaVuSans-32" transform="translate(190.869141 0)"/>
    </g>
   </g>
   <g id="text_20">
    <!-- 1021 -->
    <g transform="translate(393.798048 197.809373) scale(0.095 -0.095)">
     <use xlink:href="#DejaVuSans-31"/>
     <use xlink:href="#DejaVuSans-30" transform="translate(63.623047 0)"/>
     <use xlink:href="#DejaVuSans-32" transform="translate(127.246094 0)"/>
     <use xlink:href="#DejaVuSans-31" transform="translate(190.869141 0)"/>
    </g>
   </g>
   <g id="text_21">
    <!-- 986 -->
    <g transform="translate(460.155058 220.01768) scale(0.095 -0.095)">
     <use xlink:href="#DejaVuSans-39"/>
     <use xlink:href="#DejaVuSans-38" transform="translate(63.623047 0)"/>
     <use xlink:href="#DejaVuSans-36" transform="translate(127.246094 0)"/>
    </g>
   </g>
   <g id="text_22">
    <!-- 960 -->
    <g transform="translate(526.512067 236.851966) scale(0.095 -0.095)">
     <use xlink:href="#DejaVuSans-39"/>
     <use xlink:href="#DejaVuSans-36" transform="translate(63.623047 0)"/>
     <use xlink:href="#DejaVuSans-30" transform="translate(127.246094 0)"/>
    </g>
   </g>
   <g id="text_23">
    <!-- 945 -->
    <g transform="translate(592.869077 246.628801) scale(0.095 -0.095)">
     <use xlink:href="#DejaVuSans-39"/>
     <use xlink:href="#DejaVuSans-34" transform="translate(63.623047 0)"/>
     <use xlink:href="#DejaVuSans-35" transform="translate(127.246094 0)"/>
    </g>
   </g>
   <g id="text_24">
    <!-- 868 -->
    <g transform="translate(659.226086 296.872669) scale(0.095 -0.095)">
     <use xlink:href="#DejaVuSans-38"/>
     <use xlink:href="#DejaVuSans-36" transform="translate(63.623047 0)"/>
     <use xlink:href="#DejaVuSans-38" transform="translate(127.246094 0)"/>
    </g>
   </g>
   <g id="text_25">
    <!-- 856 -->
    <g transform="translate(725.583095 304.836581) scale(0.095 -0.095)">
     <use xlink:href="#DejaVuSans-38"/>
     <use xlink:href="#DejaVuSans-35" transform="translate(63.623047 0)"/>
     <use xlink:href="#DejaVuSans-36" transform="translate(127.246094 0)"/>
    </g>
   </g>
   <g id="text_26">
    <!-- Confidence Intervals (Bootstrap 95%) — Overall -->
    <g transform="translate(254.240781 17.837813) scale(0.14 -0.14)">
     <defs>
      <path id="DejaVuSans-43" d="M 4122 4306 
L 4122 3641 
Q 3803 3938 3442 4084 
Q 3081 4231 2675 4231 
Q 1875 4231 1450 3742 
Q 1025 3253 1025 2328 
Q 1025 1406 1450 917 
Q 1875 428 2675 428 
Q 3081 428 3442 575 
Q 3803 722 4122 1019 
L 4122 359 
Q 3791 134 3420 21 
Q 3050 -91 2638 -91 
Q 1578 -91 968 557 
Q 359 1206 359 2328 
Q 359 3453 968 4101 
Q 1578 4750 2638 4750 
Q 3056 4750 3426 4639 
Q 3797 4528 4122 4306 
z
" transform="scale(0.015625)"/>
      <path id="DejaVuSans-66" d="M 2375 4863 
L 2375 4384 
L 1825 4384 
Q 1516 4384 1395 4259 
Q 1275 4134 1275 3809 
L 1275 3500 
L 2222 3500 
L 2222 3053 
L 1275 3053 
L 1275 0 
L 697 0 
L 697 3053 
L 147 3053 
L 147 3500 
L 697 3500 
L 697 3744 
Q 697 4328 969 4595 
Q 1241 4863 1831 4863 
L 2375 4863 
z
" transform="scale(0.015625)"/>
      <path id="DejaVuSans-76" d="M 191 3500 
L 800 3500 
L 1894 563 
L 2988 3500 
L 3597 3500 
L 2284 0 
L 1503 0 
L 191 3500 
z
" transform="scale(0.015625)"/>
      <path id="DejaVuSans-6c" d="M 603 4863 
L 1178 4863 
L 1178 0 
L 603 0 
L 603 4863 
z
" transform="scale(0.015625)"/>
      <path id="DejaVuSans-73" d="M 2834 3397 
L 2834 2853 
Q 2591 2978 2328 3040 
Q 2066 3103 1784 3103 
Q 1356 3103 1142 2972 
Q 928 2841 928 2578 
Q 928 2378 1081 2264 
Q 1234 2150 1697 2047 
L 1894 2003 
Q 2506 1872 2764 1633 
Q 3022 1394 3022 966 
Q 3022 478 2636 193 
Q 2250 -91 1575 -91 
Q 1294 -91 989 -36 
Q 684 19 347 128 
L 347 722 
Q 666 556 975 473 
Q 1284 391 1588 391 
Q 1994 391 2212 530 
Q 2431 669 2431 922 
Q 2431 1156 2273 1281 
Q 2116 1406 1581 1522 
L 1381 1569 
Q 847 1681 609 1914 
Q 372 2147 372 2553 
Q 372 3047 722 3315 
Q 1072 3584 1716 3584 
Q 2034 3584 2315 3537 
Q 2597 3491 2834 3397 
z
" transform="scale(0.015625)"/>
      <path id="DejaVuSans-28" d="M 1984 4856 
Q 1566 4138 1362 3434 
Q 1159 2731 1159 2009 
Q 1159 1288 1364 580 
Q 1569 -128 1984 -844 
L 1484 -844 
Q 1016 -109 783 600 
Q 550 1309 550 2009 
Q 550 2706 781 3412 
Q 1013 4119 1484 4856 
L 1984 4856 
z
" transform="scale(0.015625)"/>
      <path id="DejaVuSans-70" d="M 1159 525 
L 1159 -1331 
L 581 -1331 
L 581 3500 
L 1159 3500 
L 1159 2969 
Q 1341 3281 1617 3432 
Q 1894 3584 2278 3584 
Q 2916 3584 3314 3078 
Q 3713 2572 3713 1747 
Q 3713 922 3314 415 
Q 2916 -91 2278 -91 
Q 1894 -91 1617 61 
Q 1341 213 1159 525 
z
M 3116 1747 
Q 3116 2381 2855 2742 
Q 2594 3103 2138 3103 
Q 1681 3103 1420 2742 
Q 1159 2381 1159 1747 
Q 1159 1113 1420 752 
Q 1681 391 2138 391 
Q 2594 391 2855 752 
Q 3116 1113 3116 1747 
z
" transform="scale(0.015625)"/>
      <path id="DejaVuSans-25" d="M 4653 2053 
Q 4381 2053 4226 1822 
Q 4072 1591 4072 1178 
Q 4072 772 4226 539 
Q 4381 306 4653 306 
Q 4919 306 5073 539 
Q 5228 772 5228 1178 
Q 5228 1588 5073 1820 
Q 4919 2053 4653 2053 
z
M 4653 2450 
Q 5147 2450 5437 2106 
Q 5728 1763 5728 1178 
Q 5728 594 5436 251 
Q 5144 -91 4653 -91 
Q 4153 -91 3862 251 
Q 3572 594 3572 1178 
Q 3572 1766 3864 2108 
Q 4156 2450 4653 2450 
z
M 1428 4353 
Q 1159 4353 1004 4120 
Q 850 3888 850 3481 
Q 850 3069 1003 2837 
Q 1156 2606 1428 2606 
Q 1700 2606 1854 2837 
Q 2009 3069 2009 3481 
Q 2009 3884 1853 4118 
Q 1697 4353 1428 4353 
z
M 4250 4750 
L 4750 4750 
L 1831 -91 
L 1331 -91 
L 4250 4750 
z
M 1428 4750 
Q 1922 4750 2215 4408 
Q 2509 4066 2509 3481 
Q 2509 2891 2217 2550 
Q 1925 2209 1428 2209 
Q 931 2209 642 2551 
Q 353 2894 353 3481 
Q 353 4063 643 4406 
Q 934 4750 1428 4750 
z
" transform="scale(0.015625)"/>
      <path id="DejaVuSans-29" d="M 513 4856 
L 1013 4856 
Q 1481 4119 1714 3412 
Q 1947 2706 1947 2009 
Q 1947 1309 1714 600 
Q 1481 -109 1013 -844 
L 513 -844 
Q 928 -128 1133 580 
Q 1338 1288 1338 2009 
Q 1338 2731 1133 3434 
Q 928 4138 513 4856 
z
" transform="scale(0.015625)"/>
      <path id="DejaVuSans-2014" d="M 313 1978 
L 6088 1978 
L 6088 1528 
L 313 1528 
L 313 1978 
z
" transform="scale(0.015625)"/>
     </defs>
     <use xlink:href="#DejaVuSans-43"/>
     <use xlink:href="#DejaVuSans-6f" transform="translate(69.824219 0)"/>
     <use xlink:href="#DejaVuSans-6e" transform="translate(131.005859 0)"/>
     <use xlink:href="#DejaVuSans-66" transform="translate(194.384766 0)"/>
     <use xlink:href="#DejaVuSans-69" transform="translate(229.589844 0)"/>
     <use xlink:href="#DejaVuSans-64" transform="translate(257.373047 0)"/>
     <use xlink:href="#DejaVuSans-65" transform="translate(320.849609 0)"/>
     <use xlink:href="#DejaVuSans-6e" transform="translate(382.373047 0)"/>
     <use xlink:href="#DejaVuSans-63" transform="translate(445.751953 0)"/>
     <use xlink:href="#DejaVuSans-65" transform="translate(500.732422 0)"/>
     <use xlink:href="#DejaVuSans-20" transform="translate(562.255859 0)"/>
     <use xlink:href="#DejaVuSans-49" transform="translate(594.042969 0)"/>
     <use xlink:href="#DejaVuSans-6e" transform="translate(623.535156 0)"/>
     <use xlink:href="#DejaVuSans-74" transform="translate(686.914062 0)"/>
     <use xlink:href="#DejaVuSans-65" transform="translate(726.123047 0)"/>
     <use xlink:href="#DejaVuSans-72" transform="translate(787.646484 0)"/>
     <use xlink:href="#DejaVuSans-76" transform="translate(828.759766 0)"/>
     <use xlink:href="#DejaVuSans-61" transform="translate(887.939453 0)"/>
     <use xlink:href="#DejaVuSans-6c" transform="translate(949.21875 0)"/>
     <use xlink:href="#DejaVuSans-73" transform="translate(977.001953 0)"/>
     <use xlink:href="#DejaVuSans-20" transform="translate(1029.101562 0)"/>
     <use xlink:href="#DejaVuSans-28" transform="translate(1060.888672 0)"/>
     <use xlink:href="#DejaVuSans-42" transform="translate(1099.902344 0)"/>
     <use xlink:href="#DejaVuSans-6f" transform="translate(1168.505859 0)"/>
     <use xlink:href="#DejaVuSans-6f" transform="translate(1229.6875 0)"/>
     <use xlink:href="#DejaVuSans-74" transform="translate(1290.869141 0)"/>
     <use xlink:href="#DejaVuSans-73" transform="translate(1330.078125 0)"/>
     <use xlink:href="#DejaVuSans-74" transform="translate(1382.177734 0)"/>
     <use xlink:href="#DejaVuSans-72" transform="translate(1421.386719 0)"/>
     <use xlink:href="#DejaVuSans-61" transform="translate(1462.5 0)"/>
     <use xlink:href="#DejaVuSans-70" transform="translate(1523.779297 0)"/>
     <use xlink:href="#DejaVuSans-20" transform="translate(1587.255859 0)"/>
     <use xlink:href="#DejaVuSans-39" transform="translate(1619.042969 0)"/>
     <use xlink:href="#DejaVuSans-35" transform="translate(1682.666016 0)"/>
     <use xlink:href="#DejaVuSans-25" transform="translate(1746.289062 0)"/>
     <use xlink:href="#DejaVuSans-29" transform="translate(1841.308594 0)"/>
     <use xlink:href="#DejaVuSans-20" transform="translate(1880.322266 0)"/>
     <use xlink:href="#DejaVuSans-2014" transform="translate(1912.109375 0)"/>
     <use xlink:href="#DejaVuSans-20" transform="translate(2012.109375 0)"/>
     <use xlink:href="#DejaVuSans-4f" transform="translate(2043.896484 0)"/>
     <use xlink:href="#DejaVuSans-76" transform="translate(2122.607422 0)"/>
     <use xlink:href="#DejaVuSans-65" transform="translate(2181.787109 0)"/>
     <use xlink:href="#DejaVuSans-72" transform="translate(2243.310547 0)"/>
     <use xlink:href="#DejaVuSans-61" transform="translate(2284.423828 0)"/>
     <use xlink:href="#DejaVuSans-6c" transform="translate(2345.703125 0)"/>
     <use xlink:href="#DejaVuSans-6c" transform="translate(2373.486328 0)"/>
    </g>
   </g>
   <g id="legend_1">
    <g id="patch_5">
     <path d="M 617.525312 91.075625 
L 769.641562 91.075625 
Q 771.841562 91.075625 771.841562 88.875625 
L 771.841562 41.537813 
Q 771.841562 39.337813 769.641562 39.337813 
L 617.525312 39.337813 
Q 615.325312 39.337813 615.325312 41.537813 
L 615.325312 88.875625 
Q 615.325312 91.075625 617.525312 91.075625 
z
" style="fill: #ffffff; opacity: 0.6; stroke: #cccccc; stroke-linejoin: miter"/>
    </g>
    <g id="patch_6">
     <path d="M 619.725312 52.096094 
L 641.725312 52.096094 
L 641.725312 44.396094 
L 619.725312 44.396094 
z
" style="fill: #f5c08a; stroke: #d97745; stroke-width: 1.5; stroke-linejoin: miter"/>
    </g>
    <g id="text_27">
     <!-- Boogu (Open-source) -->
     <g transform="translate(650.525312 52.096094) scale(0.11 -0.11)">
      <use xlink:href="#DejaVuSans-42"/>
      <use xlink:href="#DejaVuSans-6f" transform="translate(68.603516 0)"/>
      <use xlink:href="#DejaVuSans-6f" transform="translate(129.785156 0)"/>
      <use xlink:href="#DejaVuSans-67" transform="translate(190.966797 0)"/>
      <use xlink:href="#DejaVuSans-75" transform="translate(254.443359 0)"/>
      <use xlink:href="#DejaVuSans-20" transform="translate(317.822266 0)"/>
      <use xlink:href="#DejaVuSans-28" transform="translate(349.609375 0)"/>
      <use xlink:href="#DejaVuSans-4f" transform="translate(388.623047 0)"/>
      <use xlink:href="#DejaVuSans-70" transform="translate(467.333984 0)"/>
      <use xlink:href="#DejaVuSans-65" transform="translate(530.810547 0)"/>
      <use xlink:href="#DejaVuSans-6e" transform="translate(592.333984 0)"/>
      <use xlink:href="#DejaVuSans-2d" transform="translate(655.712891 0)"/>
      <use xlink:href="#DejaVuSans-73" transform="translate(691.796875 0)"/>
      <use xlink:href="#DejaVuSans-6f" transform="translate(743.896484 0)"/>
      <use xlink:href="#DejaVuSans-75" transform="translate(805.078125 0)"/>
      <use xlink:href="#DejaVuSans-72" transform="translate(868.457031 0)"/>
      <use xlink:href="#DejaVuSans-63" transform="translate(907.320312 0)"/>
      <use xlink:href="#DejaVuSans-65" transform="translate(962.300781 0)"/>
      <use xlink:href="#DejaVuSans-29" transform="translate(1023.824219 0)"/>
     </g>
    </g>
    <g id="patch_7">
     <path d="M 619.725312 68.242031 
L 641.725312 68.242031 
L 641.725312 60.542031 
L 619.725312 60.542031 
z
" style="fill: #8bc5a3; stroke: #5a9e76; stroke-width: 1.5; stroke-linejoin: miter"/>
    </g>
    <g id="text_28">
     <!-- Open-source -->
     <g transform="translate(650.525312 68.242031) scale(0.11 -0.11)">
      <use xlink:href="#DejaVuSans-4f"/>
      <use xlink:href="#DejaVuSans-70" transform="translate(78.710938 0)"/>
      <use xlink:href="#DejaVuSans-65" transform="translate(142.1875 0)"/>
      <use xlink:href="#DejaVuSans-6e" transform="translate(203.710938 0)"/>
      <use xlink:href="#DejaVuSans-2d" transform="translate(267.089844 0)"/>
      <use xlink:href="#DejaVuSans-73" transform="translate(303.173828 0)"/>
      <use xlink:href="#DejaVuSans-6f" transform="translate(355.273438 0)"/>
      <use xlink:href="#DejaVuSans-75" transform="translate(416.455078 0)"/>
      <use xlink:href="#DejaVuSans-72" transform="translate(479.833984 0)"/>
      <use xlink:href="#DejaVuSans-63" transform="translate(518.697266 0)"/>
      <use xlink:href="#DejaVuSans-65" transform="translate(573.677734 0)"/>
     </g>
    </g>
    <g id="patch_8">
     <path d="M 619.725312 84.387969 
L 641.725312 84.387969 
L 641.725312 76.687969 
L 619.725312 76.687969 
z
" style="fill: #9baec2; stroke: #6b839e; stroke-width: 1.5; stroke-linejoin: miter"/>
    </g>
    <g id="text_29">
     <!-- Proprietary -->
     <g transform="translate(650.525312 84.387969) scale(0.11 -0.11)">
      <defs>
       <path id="DejaVuSans-79" d="M 2059 -325 
Q 1816 -950 1584 -1140 
Q 1353 -1331 966 -1331 
L 506 -1331 
L 506 -850 
L 844 -850 
Q 1081 -850 1212 -737 
Q 1344 -625 1503 -206 
L 1606 56 
L 191 3500 
L 800 3500 
L 1894 763 
L 2988 3500 
L 3597 3500 
L 2059 -325 
z
" transform="scale(0.015625)"/>
      </defs>
      <use xlink:href="#DejaVuSans-50"/>
      <use xlink:href="#DejaVuSans-72" transform="translate(58.552734 0)"/>
      <use xlink:href="#DejaVuSans-6f" transform="translate(97.416016 0)"/>
      <use xlink:href="#DejaVuSans-70" transform="translate(158.597656 0)"/>
      <use xlink:href="#DejaVuSans-72" transform="translate(222.074219 0)"/>
      <use xlink:href="#DejaVuSans-69" transform="translate(263.1875 0)"/>
      <use xlink:href="#DejaVuSans-65" transform="translate(290.970703 0)"/>
      <use xlink:href="#DejaVuSans-74" transform="translate(352.494141 0)"/>
      <use xlink:href="#DejaVuSans-61" transform="translate(391.703125 0)"/>
      <use xlink:href="#DejaVuSans-72" transform="translate(452.982422 0)"/>
      <use xlink:href="#DejaVuSans-79" transform="translate(494.095703 0)"/>
     </g>
    </g>
   </g>
   <g id="PathCollection_1">
    <defs>
     <path id="m8d13bc33da" d="M 0 4.743416 
C 1.257969 4.743416 2.464584 4.24362 3.354102 3.354102 
C 4.24362 2.464584 4.743416 1.257969 4.743416 0 
C 4.743416 -1.257969 4.24362 -2.464584 3.354102 -3.354102 
C 2.464584 -4.24362 1.257969 -4.743416 0 -4.743416 
C -1.257969 -4.743416 -2.464584 -4.24362 -3.354102 -3.354102 
C -4.24362 -2.464584 -4.743416 -1.257969 -4.743416 0 
C -4.743416 1.257969 -4.24362 2.464584 -3.354102 3.354102 
C -2.464584 4.24362 -1.257969 4.743416 0 4.743416 
z
" style="stroke: #ffffff; stroke-width: 1.5"/>
    </defs>
    <g clip-path="url(#pf09062d2db)">
     <use xlink:href="#m8d13bc33da" x="107.135768" y="81.815527" style="fill: #5a7391; stroke: #ffffff; stroke-width: 1.5"/>
    </g>
   </g>
   <g id="PathCollection_2">
    <g clip-path="url(#pf09062d2db)">
     <use xlink:href="#m8d13bc33da" x="173.492777" y="151.807307" style="fill: #5a7391; stroke: #ffffff; stroke-width: 1.5"/>
    </g>
   </g>
   <g id="PathCollection_3">
    <defs>
     <path id="mf6bb17fe98" d="M 0 4.743416 
C 1.257969 4.743416 2.464584 4.24362 3.354102 3.354102 
C 4.24362 2.464584 4.743416 1.257969 4.743416 0 
C 4.743416 -1.257969 4.24362 -2.464584 3.354102 -3.354102 
C 2.464584 -4.24362 1.257969 -4.743416 0 -4.743416 
C -1.257969 -4.743416 -2.464584 -4.24362 -3.354102 -3.354102 
C -4.24362 -2.464584 -4.743416 -1.257969 -4.743416 0 
C -4.743416 1.257969 -4.24362 2.464584 -3.354102 3.354102 
C -2.464584 4.24362 -1.257969 4.743416 0 4.743416 
z
" style="stroke: #ffffff; stroke-width: 1.5"/>
    </defs>
    <g clip-path="url(#pf09062d2db)">
     <use xlink:href="#mf6bb17fe98" x="239.849787" y="177.641461" style="fill: #c4612e; stroke: #ffffff; stroke-width: 1.5"/>
    </g>
   </g>
   <g id="PathCollection_4">
    <g clip-path="url(#pf09062d2db)">
     <use xlink:href="#m8d13bc33da" x="306.206796" y="188.001021" style="fill: #5a7391; stroke: #ffffff; stroke-width: 1.5"/>
    </g>
   </g>
   <g id="PathCollection_5">
    <g clip-path="url(#pf09062d2db)">
     <use xlink:href="#mf6bb17fe98" x="372.563805" y="195.187966" style="fill: #c4612e; stroke: #ffffff; stroke-width: 1.5"/>
    </g>
   </g>
   <g id="PathCollection_6">
    <defs>
     <path id="m8b6c94b43f" d="M 0 4.743416 
C 1.257969 4.743416 2.464584 4.24362 3.354102 3.354102 
C 4.24362 2.464584 4.743416 1.257969 4.743416 0 
C 4.743416 -1.257969 4.24362 -2.464584 3.354102 -3.354102 
C 2.464584 -4.24362 1.257969 -4.743416 0 -4.743416 
C -1.257969 -4.743416 -2.464584 -4.24362 -3.354102 -3.354102 
C -4.24362 -2.464584 -4.743416 -1.257969 -4.743416 0 
C -4.743416 1.257969 -4.24362 2.464584 -3.354102 3.354102 
C -2.464584 4.24362 -1.257969 4.743416 0 4.743416 
z
" style="stroke: #ffffff; stroke-width: 1.5"/>
    </defs>
    <g clip-path="url(#pf09062d2db)">
     <use xlink:href="#m8b6c94b43f" x="438.920815" y="217.396274" style="fill: #478a62; stroke: #ffffff; stroke-width: 1.5"/>
    </g>
   </g>
   <g id="PathCollection_7">
    <g clip-path="url(#pf09062d2db)">
     <use xlink:href="#m8b6c94b43f" x="505.277824" y="234.23056" style="fill: #478a62; stroke: #ffffff; stroke-width: 1.5"/>
    </g>
   </g>
   <g id="PathCollection_8">
    <g clip-path="url(#pf09062d2db)">
     <use xlink:href="#m8d13bc33da" x="571.634834" y="244.007395" style="fill: #5a7391; stroke: #ffffff; stroke-width: 1.5"/>
    </g>
   </g>
   <g id="PathCollection_9">
    <g clip-path="url(#pf09062d2db)">
     <use xlink:href="#m8b6c94b43f" x="637.991843" y="294.251263" style="fill: #478a62; stroke: #ffffff; stroke-width: 1.5"/>
    </g>
   </g>
   <g id="PathCollection_10">
    <g clip-path="url(#pf09062d2db)">
     <use xlink:href="#m8d13bc33da" x="704.348852" y="302.215175" style="fill: #5a7391; stroke: #ffffff; stroke-width: 1.5"/>
    </g>
   </g>
  </g>
 </g>
 <defs>
  <clipPath id="pf09062d2db">
   <rect x="67.321562" y="33.837813" width="710.02" height="294.6"/>
  </clipPath>
 </defs>
</svg>
